<?xml version="1.0" encoding="UTF-8"?>
<svg width="22px" height="21px" viewBox="0 0 22 21" version="1.1" xmlns="http://www.w3.org/2000/svg" xmlns:xlink="http://www.w3.org/1999/xlink">
    <!-- Generator: Sketch 52.1 (67048) - http://www.bohemiancoding.com/sketch -->
    <title>Stroke 87</title>
    <desc>Created with Sketch.</desc>
    <g id="Armada-Chain-V.2" stroke="none" stroke-width="1" fill="none" fill-rule="evenodd" stroke-linecap="round" stroke-linejoin="round">
        <g id="Armadachain-v.2.2" transform="translate(-1053.000000, -4482.000000)" stroke="#FFFFFF" stroke-width="0.8">
            <g id="Group-11" transform="translate(1054.000000, 4481.000000)">
                <path d="M18.8228155,1.5862069 L1.20145631,1.5862069 C0.537451456,1.5862069 0,2.11837931 0,2.77586207 L0,20.2241379 C0,20.8816207 0.537451456,21.4137931 1.20145631,21.4137931 L10.4126214,21.4137931 L10.4126214,15.0689655 L8.00970874,15.0689655 L8.00970874,11.8965517 L10.4126214,11.8965517 L10.4126214,9.51724138 C10.4126214,7.32748276 12.2059951,5.55172414 14.4174757,5.55172414 L16.8203883,5.55172414 L16.8203883,8.72413793 L15.2184466,8.72413793 C14.3341748,8.72413793 13.6165049,9.43475862 13.6165049,10.3103448 L13.6165049,11.8965517 L16.8203883,11.8965517 L16.4199029,15.0689655 L13.6165049,15.0689655 L13.6165049,21.4137931 L18.8228155,21.4137931 C19.4868204,21.4137931 20.0242718,20.8816207 20.0242718,20.2241379 L20.0242718,2.77586207 C20.0242718,2.11837931 19.4868204,1.5862069 18.8228155,1.5862069 Z" id="Stroke-87"></path>
            </g>
        </g>
    </g>
</svg>