<?xml version="1.0" encoding="UTF-8"?>
<svg width="428px" height="290px" viewBox="0 0 428 290" version="1.1" xmlns="http://www.w3.org/2000/svg" xmlns:xlink="http://www.w3.org/1999/xlink">
    <!-- Generator: Sketch 52.1 (67048) - http://www.bohemiancoding.com/sketch -->
    <title>2</title>
    <desc>Created with Sketch.</desc>
    <defs>
        <linearGradient x1="63.8437061%" y1="-24.0478333%" x2="21.1617051%" y2="204.254761%" id="linearGradient-1">
            <stop stop-color="#FFFFFF" offset="0%"></stop>
            <stop stop-color="#00BCD5" offset="75%"></stop>
        </linearGradient>
        <linearGradient x1="64.6125765%" y1="-28.1551457%" x2="21.9289602%" y2="200.147448%" id="linearGradient-2">
            <stop stop-color="#FFFFFF" offset="0%"></stop>
            <stop stop-color="#00BCD5" offset="75%"></stop>
        </linearGradient>
        <linearGradient x1="51.1056589%" y1="-107.637566%" x2="45.1440226%" y2="773.549163%" id="linearGradient-3">
            <stop stop-color="#FFFFFF" offset="0%"></stop>
            <stop stop-color="#00BCD5" offset="75%"></stop>
        </linearGradient>
        <linearGradient x1="48.8927832%" y1="-107.648356%" x2="54.8542297%" y2="773.626704%" id="linearGradient-4">
            <stop stop-color="#FFFFFF" offset="0%"></stop>
            <stop stop-color="#00BCD5" offset="75%"></stop>
        </linearGradient>
        <linearGradient x1="51.1056589%" y1="-107.648356%" x2="45.1440224%" y2="773.626704%" id="linearGradient-5">
            <stop stop-color="#FFFFFF" offset="0%"></stop>
            <stop stop-color="#00BCD5" offset="75%"></stop>
        </linearGradient>
        <linearGradient x1="48.822686%" y1="-107.477427%" x2="55.1760395%" y2="773.946576%" id="linearGradient-6">
            <stop stop-color="#FFFFFF" offset="0%"></stop>
            <stop stop-color="#00BCD5" offset="75%"></stop>
        </linearGradient>
        <linearGradient x1="48.7744159%" y1="-289.180145%" x2="50.6415167%" y2="228.053542%" id="linearGradient-7">
            <stop stop-color="#FFFFFF" offset="0%"></stop>
            <stop stop-color="#00BCD5" offset="75%"></stop>
        </linearGradient>
        <linearGradient x1="48.7792034%" y1="-289.180145%" x2="50.6415167%" y2="228.109314%" id="linearGradient-8">
            <stop stop-color="#FFFFFF" offset="0%"></stop>
            <stop stop-color="#00BCD5" offset="75%"></stop>
        </linearGradient>
        <linearGradient x1="49.0868936%" y1="29.6012096%" x2="81.465194%" y2="420.398786%" id="linearGradient-9">
            <stop stop-color="#FFFFFF" offset="0%"></stop>
            <stop stop-color="#00BCD5" offset="75%"></stop>
        </linearGradient>
        <linearGradient x1="48.7745906%" y1="-289.159198%" x2="50.6392644%" y2="228.126334%" id="linearGradient-10">
            <stop stop-color="#FFFFFF" offset="0%"></stop>
            <stop stop-color="#00BCD5" offset="75%"></stop>
        </linearGradient>
        <linearGradient x1="50.9091959%" y1="29.6242645%" x2="18.5333824%" y2="420.321352%" id="linearGradient-11">
            <stop stop-color="#FFFFFF" offset="0%"></stop>
            <stop stop-color="#00BCD5" offset="75%"></stop>
        </linearGradient>
        <linearGradient x1="48.7745906%" y1="389.201878%" x2="50.6429278%" y2="-128.126334%" id="linearGradient-12">
            <stop stop-color="#FFFFFF" offset="0%"></stop>
            <stop stop-color="#00BCD5" offset="75%"></stop>
        </linearGradient>
        <linearGradient x1="23.6456292%" y1="-54.229163%" x2="240.862407%" y2="489.139716%" id="linearGradient-13">
            <stop stop-color="#FFFFFF" offset="0%"></stop>
            <stop stop-color="#00BCD5" offset="75%"></stop>
        </linearGradient>
        <linearGradient x1="48.7744159%" y1="-289.180145%" x2="50.6415167%" y2="228.109314%" id="linearGradient-14">
            <stop stop-color="#FFFFFF" offset="0%"></stop>
            <stop stop-color="#00BCD5" offset="75%"></stop>
        </linearGradient>
        <linearGradient x1="48.4863113%" y1="-259.088218%" x2="50.7896007%" y2="212.314979%" id="linearGradient-15">
            <stop stop-color="#FFFFFF" offset="0%"></stop>
            <stop stop-color="#00BCD5" offset="75%"></stop>
        </linearGradient>
        <linearGradient x1="-18.9571701%" y1="163.589072%" x2="54.2592256%" y2="12.5812481%" id="linearGradient-16">
            <stop stop-color="#F0AE7C" offset="1%"></stop>
            <stop stop-color="#FFEF7B" offset="93%"></stop>
        </linearGradient>
        <linearGradient x1="51.5924323%" y1="-66.427542%" x2="47.164049%" y2="218.17609%" id="linearGradient-17">
            <stop stop-color="#FFFFFF" offset="0%"></stop>
            <stop stop-color="#00BCD5" offset="75%"></stop>
        </linearGradient>
        <linearGradient x1="0.00873496833%" y1="50.0087117%" x2="100.0034%" y2="50.0087117%" id="linearGradient-18">
            <stop stop-color="#F0AE7C" offset="1%"></stop>
            <stop stop-color="#FFEF7B" offset="93%"></stop>
        </linearGradient>
        <linearGradient x1="-8.15719579e-14%" y1="50.0026863%" x2="100%" y2="50.0026863%" id="linearGradient-19">
            <stop stop-color="#FFFFFF" offset="0%"></stop>
            <stop stop-color="#00BCD5" offset="75%"></stop>
        </linearGradient>
        <linearGradient x1="-0.0675707269%" y1="50.0164564%" x2="99.9967263%" y2="50.0164564%" id="linearGradient-20">
            <stop stop-color="#F0AE7C" offset="1%"></stop>
            <stop stop-color="#FFEF7B" offset="93%"></stop>
        </linearGradient>
        <linearGradient x1="49.667878%" y1="40.2236538%" x2="34.2057235%" y2="253.409524%" id="linearGradient-21">
            <stop stop-color="#F0AE7C" offset="1%"></stop>
            <stop stop-color="#FFEF7B" offset="93%"></stop>
        </linearGradient>
        <linearGradient x1="-6.10115928%" y1="57.4449271%" x2="100.142729%" y2="37.8896788%" id="linearGradient-22">
            <stop stop-color="#F0AE7C" offset="1%"></stop>
            <stop stop-color="#FFEF7B" offset="93%"></stop>
        </linearGradient>
        <linearGradient x1="2.6385677e-13%" y1="49.9988501%" x2="99.9963511%" y2="49.9988501%" id="linearGradient-23">
            <stop stop-color="#FFFFFF" offset="0%"></stop>
            <stop stop-color="#00BCD5" offset="75%"></stop>
        </linearGradient>
        <linearGradient x1="0.102914419%" y1="50.0092168%" x2="99.9264771%" y2="50.0092168%" id="linearGradient-24">
            <stop stop-color="#F0AE7C" offset="1%"></stop>
            <stop stop-color="#FFEF7B" offset="93%"></stop>
        </linearGradient>
    </defs>
    <g id="Armada-Chain-V.2" stroke="none" stroke-width="1" fill="none" fill-rule="evenodd">
        <g id="Armadachain-v.2.3" transform="translate(-793.000000, -1757.000000)">
            <g id="Group-18" transform="translate(254.000000, 1757.500000)">
                <g id="2" transform="translate(539.000000, 0.000000)">
                    <g id="Layer_2" transform="translate(0.000000, 0.719801)" fill-rule="nonzero">
                        <path d="M211.158655,48.2770361 C211.158655,48.2770361 154.13395,138.511258 99.8283025,125.828369 C45.5226555,113.145479 -24.176605,182.890573 8.40894118,231.801034 C32.9272269,268.604446 44.5983193,270.745853 124.263866,260.783811 C203.929412,250.821768 225.638723,268.485679 278.592034,280.722291 C331.545345,292.958904 430.654319,283.439539 427.938857,197.848032 C425.223395,112.256526 281.307496,-48.0718929 211.158655,48.2770361 Z" id="Path" fill="#17CFDD" opacity="0.32"></path>
                        <rect id="Rectangle" fill="url(#linearGradient-1)" opacity="0.74" x="84.4382857" y="0.158356164" width="222.664303" height="288.021071" rx="15.1524"></rect>
                        <polygon id="Path" fill="#045056" opacity="0.12" points="254.217613 283.288381 324.700941 283.288381 324.834017 39.6826152 306.606252 28.1981943"></polygon>
                    </g>
                    <g id="Layer_1" transform="translate(24.457143, 0.000000)">
                        <rect id="Rectangle" fill="#FFFFFF" fill-rule="nonzero" x="65.4120672" y="0.201544209" width="222.664303" height="288.021071" rx="15.1524"></rect>
                        <rect id="Rectangle" fill="url(#linearGradient-2)" fill-rule="nonzero" opacity="0.32" x="65.4120672" y="0.201544209" width="222.664303" height="288.021071" rx="15.1524"></rect>
                        <polyline id="Path" fill="#045056" fill-rule="nonzero" opacity="0.09" points="187.607866 238.829888 187.607866 253.125131 169.955563 238.182067 65.4120672 238.182067 65.4120672 225.499178 186.701513 225.499178 187.607866 238.829888"></polyline>
                        <polyline id="Path" fill="#045056" fill-rule="nonzero" opacity="0.09" points="203.220874 270.529913 203.220874 284.825156 220.86958 269.882092 288.07637 269.882092 288.07637 257.199203 204.12363 257.199203 203.220874 270.529913"></polyline>
                        <path d="M246.754588,25.7868618 L246.75459,57.6164508 L238.683731,50.8863138 L137.949076,50.8863138 C135.699925,50.8843274 133.87768,49.0592735 133.877681,46.8086426 L133.877681,25.7868618 C133.876726,24.7057272 134.305254,23.6685462 135.068892,22.9037308 C135.83253,22.1389155 136.868651,21.7091901 137.949076,21.7091905 L242.683193,21.7091905 C243.763618,21.7091901 244.799738,22.1389155 245.563377,22.9037308 C246.327015,23.6685462 246.755543,24.7057272 246.754588,25.7868618 Z" id="Path" fill="url(#linearGradient-3)" fill-rule="nonzero"></path>
                        <path d="M97.9976134,65.4298879 L97.9976134,97.259477 L106.068471,90.52934 L206.806723,90.52934 C209.05447,90.5273557 210.876135,88.7044933 210.878118,86.4552677 L210.878118,65.4298879 C210.876135,63.1806624 209.05447,61.3578 206.806723,61.3558157 L102.069008,61.3558157 C99.8204391,61.3558157 97.9976134,63.17984 97.9976134,65.4298879 Z" id="Path" fill="url(#linearGradient-4)" fill-rule="nonzero"></path>
                        <path d="M246.754588,102.737161 L246.754588,134.56675 L238.683731,127.836613 L137.949076,127.836613 C135.700506,127.836613 133.877681,126.012588 133.877681,123.76254 L133.877681,102.737161 C133.877681,100.487113 135.700506,98.6630884 137.949076,98.6630884 L242.683193,98.6630884 C244.931763,98.6630884 246.754588,100.487113 246.754588,102.737161 Z" id="Path" fill="url(#linearGradient-5)" fill-rule="nonzero"></path>
                        <path d="M97.9976134,138.136961 L97.9976134,172.061171 L106.068471,164.888356 L206.806723,164.888356 C209.051025,164.888356 210.878118,162.941295 210.878118,160.544359 L210.878118,138.136961 C210.878118,135.740025 209.051025,133.796563 206.806723,133.796563 L102.069008,133.796563 C99.8175126,133.796563 97.9976134,135.740025 97.9976134,138.136961 Z" id="Path" fill="url(#linearGradient-6)" fill-rule="nonzero"></path>
                        <rect id="Rectangle" fill="url(#linearGradient-7)" fill-rule="nonzero" x="141.265176" y="30.5987298" width="75.1265882" height="6.4530137" rx="3.2256"></rect>
                        <rect id="Rectangle" fill="url(#linearGradient-8)" fill-rule="nonzero" x="119.397613" y="70.4289041" width="75.1265882" height="6.4530137" rx="3.2256"></rect>
                        <rect id="Rectangle" fill="url(#linearGradient-8)" fill-rule="nonzero" x="143.268504" y="107.171133" width="75.1265882" height="6.4530137" rx="3.2256"></rect>
                        <path d="M187.604269,185.348692 L187.60427,238.153275 L174.213983,226.996364 L7.05660504,226.996364 C3.6304129,226.98624 0.753298253,224.413379 0.359663866,221.007621 C0.326549068,220.7474 0.309731924,220.485361 0.309310924,220.223039 L0.309310924,185.348692 C0.310264558,183.555158 1.02318968,181.835462 2.29125084,180.567917 C3.559312,179.300372 5.27863619,178.588809 7.0709916,178.589763 L180.860571,178.589763 C184.587581,178.593737 187.606257,181.619231 187.604269,185.348692 Z" id="Path" fill="url(#linearGradient-9)" fill-rule="nonzero"></path>
                        <path d="M59.6682353,198.665006 C62.1571092,193.205318 67.026958,188.972889 68.8648403,183.257671 C69.3791597,181.663313 69.5086387,179.622677 68.181479,178.604159 C67.4225882,178.021121 66.3831597,177.956339 65.4372437,177.974334 C58.6216134,178.107497 52.086521,181.389788 47.249042,186.194458 C42.411563,190.999128 39.1709916,197.236202 37.1209076,203.7432 C35.3873277,209.242478 34.5349244,215.515542 37.3295126,220.564944 C39.8255798,225.074496 51.6729076,232.009776 55.6975462,226.366538 C57.7871933,223.43335 56.9779496,216.422491 57.1362017,212.974645 C57.3591933,208.133985 57.6217479,203.170959 59.6682353,198.665006 Z" id="Path" fill="#045056" fill-rule="nonzero" opacity="0.12"></path>
                        <rect id="Rectangle" fill="url(#linearGradient-10)" fill-rule="nonzero" x="70.8825546" y="194.285019" width="98.1774454" height="8.43246575" rx="4.2156"></rect>
                        <path d="M203.048235,220.654919 L203.048234,273.473898 L216.438521,262.316986 L383.595899,262.316986 C387.02392,262.314795 389.9079,259.745963 390.307227,256.339041 C390.340342,256.080025 390.357159,255.819184 390.35758,255.558057 L390.35758,220.654919 C390.356626,218.861385 389.643701,217.141689 388.37564,215.874143 C387.107579,214.606598 385.388255,213.895035 383.595899,213.89599 L209.806319,213.89599 C208.014002,213.894079 206.294493,214.605449 205.026795,215.873305 C203.759098,217.141161 203.047279,218.861423 203.048235,220.654919 Z" id="Path" fill="url(#linearGradient-11)" fill-rule="nonzero"></path>
                        <path d="M301.757983,228.133649 C304.376336,231.210797 307.063025,234.345529 310.526588,236.411357 C313.990151,238.477186 318.439193,239.391333 322.107765,237.710598 C323.147193,241.06127 321.974689,244.63868 321.208605,248.061333 C320.194353,252.592478 319.892235,257.249589 319.597311,261.885106 C322.936531,262.259433 326.31709,261.928389 329.520437,260.913375 C330.25408,260.7289 330.936498,260.380699 331.516571,259.894857 C332.041337,259.326264 332.429985,258.645681 332.653109,257.904608 C333.79684,254.769875 334.282387,251.426401 334.667227,248.122516 C335.394001,241.842542 335.781802,235.527919 335.828941,229.206152 C335.871365,228.827518 335.781105,228.445891 335.57358,228.126451 C335.31937,227.88874 334.995096,227.739754 334.649244,227.701768 C331.50543,227.028326 328.313935,226.60115 325.103765,226.424122 C322.010655,226.254969 318.773681,226.283761 316.022252,224.858555 C313.612504,223.6133 311.878924,221.399913 309.872,219.575218 C305.376202,215.48675 296.050118,211.369489 289.971798,214.057945 C291.176672,216.555654 293.902924,218.898605 295.72642,221.032814 L301.757983,228.133649 Z" id="Path" fill="#045056" fill-rule="nonzero" opacity="0.12"></path>
                        <rect id="Rectangle" fill="url(#linearGradient-12)" fill-rule="nonzero" transform="translate(270.681227, 233.825473) rotate(-180.000000) translate(-270.681227, -233.825473) " x="221.592504" y="229.60924" width="98.1774454" height="8.43246575" rx="4.2156"></rect>
                        <path d="M337.914992,202.533935 L320.291462,217.430212 L296.913311,202.839851 L292.047059,209.821918 C292.047059,209.821918 312.404034,232.013375 315.745311,233.532154 C319.086588,235.050934 333.667361,231.70746 333.667361,231.70746 L337.922185,202.523138" id="Path" fill="url(#linearGradient-13)" fill-rule="nonzero"></path>
                        <path d="M292.881479,209.933487 C293.737479,209.893898 294.679798,209.811121 295.273244,209.181295 C295.450169,208.977221 295.59785,208.749499 295.712034,208.504682 C296.636979,206.669347 297.042454,204.61575 296.884538,202.566326 C295.468147,203.844336 294.158229,205.23576 292.967798,206.726775 C292.406723,207.432179 290.917714,210.027061 292.881479,209.933487 Z" id="Path" fill="#045056" fill-rule="nonzero"></path>
                        <rect id="Rectangle" fill="url(#linearGradient-14)" fill-rule="nonzero" x="114.117748" y="142.049078" width="75.1265882" height="6.4530137" rx="3.2256"></rect>
                        <rect id="Rectangle" fill="url(#linearGradient-15)" fill-rule="nonzero" x="114.117748" y="152.011121" width="52.1548571" height="6.07871731" rx="3.03935866"></rect>
                        <path d="M77.7593277,143.046002 C78.6369076,140.242379 79.1332437,136.567796 80.3632941,133.886538 C80.8272605,132.882416 82.1616134,131.007335 82.3989916,129.956426 C82.44187,129.753067 82.353676,129.544498 82.1779544,129.433697 C82.0022328,129.322895 81.7761484,129.333296 81.6113277,129.459763 C80.9520604,129.932787 80.4316497,130.574097 80.1043361,131.316849 C80.8704202,129.517347 81.9889748,125.166152 81.1437647,125.392889 C79.5144874,126.422204 79.3454454,129.560535 78.4786555,130.66543 C78.6189244,128.887522 79.4245714,126.861283 79.5576471,125.079776 C79.5828235,124.748667 79.5828235,124.359975 79.3130756,124.154832 C78.8059496,123.794932 78.234084,124.514732 78.0506555,125.133761 C77.557916,126.753313 76.7127059,130.471083 76.0005714,130.143574 C75.9070588,128.506027 76.392605,126.706526 76.1228571,125.086974 C76.0725042,124.788257 75.9574118,124.424757 75.6588908,124.367173 C75.2992269,124.30599 75.069042,124.755866 74.9755294,125.115766 C74.5271485,126.864882 74.1003473,128.617597 73.6951261,130.37391 C73.6476123,130.769388 73.4764127,131.139725 73.2059832,131.432017 C72.7240336,131.853101 71.9579496,131.673151 71.4256471,131.31325 C70.7602689,130.863375 70.2495462,130.175965 69.3935462,130.046401 C68.9051801,129.949227 68.4173777,130.216027 68.2354286,130.679826 C67.9872605,131.446413 68.8972101,132.043848 69.4151261,132.670075 C69.7698988,133.158295 70.0297745,133.70891 70.1812101,134.293225 C70.9616807,136.675766 71.7493445,139.15188 71.4652101,141.642391 C71.1918655,144.064521 69.9366387,146.245517 69.0338824,148.512889 C68.4943866,149.873313 68.0771765,151.453275 69.2281008,152.705729 C69.8323304,153.323079 70.6523624,153.681757 71.515563,153.706252 C74.7021849,153.879004 74.9935126,151.852765 75.7703866,149.369452 L77.7593277,143.046002 Z" id="Path" fill="url(#linearGradient-16)" fill-rule="nonzero"></path>
                        <path d="M76.3422521,153.67746 C72.7168403,162.059539 68.9511597,170.394832 64.9049412,178.586164 C62.1355294,184.186214 59.2366387,189.721482 56.157916,195.141582 C53.6798319,199.514371 51.0542857,203.901557 49.8602017,208.778207 C48.9826218,212.34122 48.9178824,216.0266 49.1408739,219.672391 C49.2847395,222.047733 50.115563,224.710996 49.3386891,226.985567 L7.05660504,226.985567 C3.6340763,226.976091 0.758340479,224.409099 0.359663866,221.007621 C0.359663866,217.635355 0.740907563,214.259489 0.629411765,210.883624 C0.575462185,209.332453 0.435193277,207.745293 0.309310924,206.158132 C0.129478992,203.836775 -0.010789916,201.515417 0.24097479,199.320025 C0.262554622,199.136476 0.287731092,198.960125 0.309310924,198.780174 C0.532005627,197.074036 1.09852823,195.430897 1.97455462,193.950311 C3.07872269,192.150809 4.70080672,190.711208 6.40201681,189.462354 C12.5996791,184.932436 20.0696103,182.478611 27.7444706,182.451494 C33.592605,182.451494 39.973042,183.729141 44.9040336,180.580012 C45.7755412,180.010026 46.5781436,179.340952 47.2957983,178.586164 C48.3922238,177.399787 49.4030265,176.136957 50.3205714,174.80721 C55.9601008,166.961382 61.2819272,158.899614 66.2860504,150.621905 C66.8147563,149.740149 67.365042,148.822403 68.2390252,148.278954 C70.5156975,146.839352 73.4109916,148.574072 75.5258151,150.236812 C76.0221513,150.629103 76.5436639,151.057385 76.7198992,151.676413 C76.8961345,152.320635 76.6084034,153.022441 76.3422521,153.67746 Z" id="Path" fill="url(#linearGradient-17)" fill-rule="nonzero"></path>
                        <path d="M41.7677647,174.778418 C39.9406723,178.499788 31.4705882,176.937821 30.7908235,177.384097 C29.5571765,178.20467 29.5571765,184.283387 28.974521,187.893188 C28.9341665,188.426528 28.763746,188.941833 28.4781849,189.393973 C27.9566723,190.077783 26.9855798,190.207347 26.1259832,190.203748 C23.6083361,190.203748 20.8928739,189.339988 19.598084,187.191382 C18.2241681,184.920411 18.8787563,182.041208 19.0046387,179.392341 C19.170084,176.221619 18.5478655,173.068892 18.1198655,169.923362 C17.6988063,166.804232 17.4646064,163.662688 17.418521,160.515567 C17.3825546,157.762329 17.4940504,154.9767 18.2241681,152.320635 C18.9542857,149.66457 20.3497815,147.123674 22.5113613,145.421345 C24.9714622,143.481482 28.1760672,142.783275 31.2907563,142.448568 C32.9488067,142.272217 34.668,142.185841 36.2433277,142.732889 C38.4013109,143.481482 42.2928739,145.450137 42.5590252,147.710311 C44.0300504,160.173661 44.8213109,168.552142 41.7677647,174.778418 Z" id="Path" fill="url(#linearGradient-18)" fill-rule="nonzero"></path>
                        <path d="M45.8895126,145.586899 C43.5842551,149.078752 39.639878,151.131177 35.4592605,151.014197 C32.3373782,150.89543 28.6472269,149.729352 26.4676639,151.975131 C23.8744874,154.659988 25.8202689,160.202453 22.6228571,162.124321 C22.5185046,161.043568 21.6174166,160.214954 20.5324209,160.202018 C19.4474253,160.189082 18.5268632,160.995977 18.3968067,162.073935 C18.1882017,163.931021 20.3461849,165.899676 19.2312269,167.400461 C18.6377815,168.19944 17.3645714,168.210237 16.5301513,167.659589 C15.6957311,167.108941 15.2173782,166.169601 14.8397311,165.244658 C13.1336682,161.027684 12.8482975,156.369039 14.0268908,151.975131 C14.6167395,149.815729 15.5626555,147.706712 15.8431933,145.468132 C15.9834622,144.352441 15.9510924,143.207958 16.2460168,142.121059 C17.1451765,138.795579 20.8317311,136.938493 24.266521,136.722553 C27.7013109,136.506613 31.1001345,137.525131 34.5061513,137.906625 C36.549042,138.133362 38.7322017,138.115367 40.7067563,137.471146 C42.0267227,137.039265 44.6630588,134.199651 45.7780168,134.264433 C49.7918655,134.509166 47.0080672,143.852179 45.8895126,145.586899 Z" id="Path" fill="#045056" fill-rule="nonzero"></path>
                        <path d="M27.6401681,178.56457 C27.0091233,179.556068 26.5619761,180.653336 26.3202017,181.803674 C25.7019023,184.12476 25.4375641,186.525996 25.5361345,188.926102 C25.5181107,189.244764 25.6237692,189.55808 25.8310588,189.80066 C25.9791148,189.920225 26.1594343,189.992901 26.3489748,190.009402 C27.3308571,190.12457 28.2408067,189.365181 28.6472269,188.46543 C29.0536471,187.565679 29.0752269,186.543562 29.1291765,185.557435 C29.2645473,183.304206 29.594267,181.066899 30.1146555,178.870486 C30.7081008,176.304396 28.7731092,176.963014 27.6401681,178.56457 Z" id="Path" fill="#045056" fill-rule="nonzero" opacity="0.12"></path>
                        <path d="M27.8991261,226.981968 L7.05660504,226.981968 C3.6352959,226.972709 0.760018782,224.407672 0.359663866,221.007621 C0.359663866,217.635355 0.740907563,214.259489 0.629411765,210.883624 C0.575462185,209.332453 0.435193277,207.745293 0.309310924,206.158132 C0.129478992,203.836775 -0.010789916,201.515417 0.24097479,199.320025 C3.60763089,200.535679 6.29628905,203.130533 7.63206723,206.45325 C8.26507563,208.04401 8.56359664,209.785928 9.4807395,211.232727 C10.8942185,213.478506 13.487395,214.622989 15.8575798,215.81066 C19.5549244,217.649751 26.8453109,221.605056 27.8235966,226.136202 C27.8811275,226.414289 27.9064709,226.698079 27.8991261,226.981968 Z" id="Path" fill="#045056" fill-rule="nonzero" opacity="0.12"></path>
                        <path d="M343.568908,171.672478 C340.31935,176.344219 338.202495,181.709459 337.386286,187.34254 C336.760471,191.704533 337.206454,196.764732 340.623261,199.543163 C342.781244,201.310274 345.87795,201.770946 348.571832,201.015156 C351.265714,200.259365 353.574756,198.380685 355.142891,196.055729" id="Path"></path>
                        <path d="M335.96921,173.763499 L335.055664,170.448817 C334.192471,167.310486 333.332874,163.941818 334.401076,160.868269 C334.954769,159.399885 335.812788,158.065401 336.918723,156.952553 C338.644696,155.126698 340.735266,153.684654 343.054588,152.720125 C347.575563,150.845044 352.136101,149.632179 356.959193,150.45995 C359.55237,150.906227 362.156336,151.65122 364.292739,153.187995 C366.501076,154.778755 368.051227,157.10731 369.461109,159.435866 C371.259429,162.408643 372.917479,165.507385 373.827429,168.861656 C376.319899,177.999527 373.046958,187.936376 375.37758,197.124633 C375.924269,199.26604 376.769479,201.339066 377.08958,203.52726 C377.625568,207.206998 376.635342,210.946078 374.348568,213.877275 C372.061794,216.808473 368.677166,218.677102 364.979697,219.049763 C362.375731,219.308892 359.527193,218.869813 357.322454,220.280623 C357.005923,220.532504 356.637355,220.710762 356.243462,220.802478 C355.791308,220.804342 355.35034,220.661879 354.984639,220.395791 C351.388,218.308369 347.665479,216.120174 345.273714,212.722715 C341.810151,207.82807 341.698655,201.349863 342.281311,195.379116 C342.813613,189.919427 343.666017,183.84071 340.403866,179.43193 C338.925647,177.430884 336.645378,176.160436 335.96921,173.763499 Z" id="Path" fill="#045056" fill-rule="nonzero"></path>
                        <path d="M355.142891,196.041333 C355.142891,196.041333 374.068403,198.888144 374.978353,216.519664 C375.888303,234.151183 377.711798,263.029589 377.711798,263.029589 L327.585445,262.421357 C327.585445,262.421357 331.401479,207.975629 337.914992,202.533935 C344.428504,197.092242 355.142891,196.041333 355.142891,196.041333 Z" id="Path" fill="url(#linearGradient-19)" fill-rule="nonzero"></path>
                        <path d="M355.797479,244.300374 C354.718487,246.121469 353.279832,247.697833 352.279966,249.562117 C350.868149,252.244715 350.48443,255.351043 351.200975,258.296899 C351.434756,259.247036 351.833983,260.233163 352.63963,260.758618 C353.261849,261.154508 352.021008,262.471743 352.754723,262.525729 C358.597571,262.94614 364.46137,262.990619 370.309916,262.658892 C371.496807,262.576115 375.010723,262.932416 375.766017,262.011071 C376.187731,261.401168 376.44763,260.694025 376.521311,259.95604 C378.31963,249.925616 375.406353,237.566638 372.252101,227.87812 C370.770286,223.32538 362.821714,210.476936 359.11358,220.320212 C356.211092,228.025679 360.260908,236.706476 355.797479,244.300374 Z" id="Path" fill="#045056" fill-rule="nonzero" opacity="0.12"></path>
                        <path d="M349.478185,250.652615 C348.474723,250.551843 347.320202,250.415081 346.575697,251.077298 C346.191373,251.470826 346.008097,252.018677 346.078198,252.564428 C346.1483,253.110178 346.464075,253.593842 346.935361,253.877323 C344.58316,256.223873 340.821076,257.559103 340.011832,260.780212 C339.749277,261.813126 340.141311,263.24193 341.205916,263.299514 C341.925244,263.342702 342.86037,262.745268 343.29916,263.339103 C343.468202,263.56944 343.453815,263.889751 343.590487,264.138082 C343.899798,264.703126 344.716235,264.634745 345.338454,264.497983 C348.909916,263.652217 352.553311,262.77406 355.64642,260.801806 C357.656941,259.524159 359.358151,257.82543 361.041378,256.141096 C361.325016,255.907722 361.533878,255.596099 361.642017,255.244944 C361.680499,254.835525 361.577685,254.425267 361.350689,254.082466 C358.092134,247.910174 355.383866,251.246451 349.478185,250.652615 Z" id="Path" fill="url(#linearGradient-20)" fill-rule="nonzero"></path>
                        <path d="M345.158622,203.343711 C345.946286,204.398219 347.428101,204.783313 348.712101,204.495392 C349.993988,204.149595 351.121805,203.38116 351.913109,202.314396 C354.355227,199.276837 354.596202,195.008418 354.071092,191.157484 C353.97758,190.502466 353.740202,189.717883 353.092807,189.577522 C352.817681,189.547733 352.53948,189.587326 352.283563,189.69269 C350.325834,190.335169 348.436718,191.17064 346.644034,192.1868 C345.773647,192.679863 344.453681,193.399664 344.022084,194.346202 C343.507765,195.497883 344.180336,195.908169 344.428504,197.092242 C344.852908,199.129278 343.799092,201.544209 345.158622,203.343711 Z" id="Path" fill="url(#linearGradient-21)" fill-rule="nonzero"></path>
                        <path d="M351.664941,194.706102 C350.409714,197.020262 348.967462,199.507173 346.510958,200.464508 C345.910319,200.698443 345.104672,200.766824 344.741412,200.234172 C344.559157,199.869243 344.50106,199.454716 344.575966,199.053699 C344.62592,197.99149 344.446829,196.930965 344.050857,195.944159 C343.951408,195.765775 343.912296,195.559984 343.939361,195.357522 C344.018051,195.153473 344.169153,194.985614 344.363765,194.886052 C346.773513,193.273699 349.399059,192.035641 352.031798,190.804782 C353.319395,190.200149 353.589143,190.606837 353.11079,191.826899 C352.683169,192.813001 352.200457,193.774253 351.664941,194.706102 Z" id="Path" fill="#045056" fill-rule="nonzero" opacity="0.12"></path>
                        <path d="M337.422252,169.934159 C337.422252,169.934159 331.289983,189.268007 335.587966,194.878854 C339.88595,200.489701 354.074689,191.24746 355.477378,189.084458 C355.477378,189.084458 366.375193,179.007248 363.620168,173.360411 C360.865143,167.713574 348.345244,152.684134 337.422252,169.934159 Z" id="Path" fill="url(#linearGradient-22)" fill-rule="nonzero"></path>
                        <path d="M349.668807,170.135704 C350.873681,173.702316 354.603395,175.678169 358.070555,177.135766 C358.521101,177.267797 358.91633,177.54325 359.196303,177.920349 C359.345381,178.223858 359.408805,178.562342 359.379731,178.899278 C359.318588,181.353798 357.984235,184.225803 359.692639,185.982117 C361.055765,187.385729 363.497882,186.871071 365.022857,185.64741 C368.619496,182.750212 368.921613,177.405691 368.418084,172.806164 C368.241849,171.183014 367.993681,169.541868 367.288739,168.069875 C366.292471,165.989651 364.479765,164.438481 362.692235,162.988082 C360.36521,161.095006 357.941076,159.230722 355.139294,158.187011 C352.769109,157.308854 348.00716,156.139178 348.467529,159.626613 C348.686924,161.278555 349.28037,162.595791 349.276773,164.366501 C349.25879,166.309963 349.035798,168.260623 349.668807,170.135704 Z" id="Path" fill="#045056" fill-rule="nonzero"></path>
                        <path d="M374.370521,212.870274 L374.370521,213.176189" id="Path"></path>
                        <path d="M373.154857,208.616252 C373.154857,208.616252 387.433513,241.752279 387.131395,245.703985 C386.829277,249.655691 361.408235,257.357559 361.408235,257.357559 L356.142756,250.263923 L368.295798,239.927584 C368.295798,239.927584 359.181916,220.773686 359.789748,217.736127 C360.39758,214.698568 364.339496,196.455218 373.154857,208.616252 Z" id="Path" fill="url(#linearGradient-23)" fill-rule="nonzero"></path>
                        <path d="M288.601479,193.147733 C288.454178,193.05637 288.281458,193.014738 288.108739,193.028966 C287.698723,193.100946 287.641176,193.669589 287.720303,194.076276 C287.973959,195.395567 288.602036,196.613814 289.529412,197.585305 C284.958084,196.890697 280.332807,196.620772 275.714723,196.354446 C275.548108,196.332524 275.378719,196.347263 275.218387,196.397634 C274.866858,196.597641 274.722601,197.030694 274.883899,197.401756 C275.056303,197.75332 275.314916,198.05544 275.635597,198.279913 L274.891092,198.618219 C274.792211,199.209815 274.851779,199.817067 275.063731,200.378132 C276.00715,203.225338 278.3462,205.387868 281.257143,206.104147 C283.38995,206.615205 285.681008,206.298493 287.752672,207.018294 C288.907193,207.417783 289.928639,208.119589 291.05079,208.598257 C292.172941,209.076924 293.500101,209.318057 294.593479,208.785405 C297.341311,207.432179 297.172269,202.814658 296.032134,200.540087 C294.41637,197.338857 291.809963,194.745885 288.601479,193.147733 Z" id="Path" fill="url(#linearGradient-24)" fill-rule="nonzero"></path>
                    </g>
                </g>
            </g>
        </g>
    </g>
</svg>