<?xml version="1.0" encoding="UTF-8"?>
<svg width="22px" height="21px" viewBox="0 0 22 21" version="1.1" xmlns="http://www.w3.org/2000/svg" xmlns:xlink="http://www.w3.org/1999/xlink">
    <!-- Generator: Sketch 52.1 (67048) - http://www.bohemiancoding.com/sketch -->
    <title>Group 10</title>
    <desc>Created with Sketch.</desc>
    <g id="Armada-Chain-V.2" stroke="none" stroke-width="1" fill="none" fill-rule="evenodd" stroke-linecap="round" stroke-linejoin="round">
        <g id="Armadachain-v.2.2" transform="translate(-1198.000000, -4482.000000)" stroke="#FFFFFF" stroke-width="0.8">
            <g id="Group-11" transform="translate(1054.000000, 4481.000000)">
                <g id="Group-10" transform="translate(144.975728, 1.586207)">
                    <path d="M6.40776699,4.75862069 C6.40776699,5.6342069 5.69009709,6.34482759 4.80582524,6.34482759 C3.9215534,6.34482759 3.2038835,5.6342069 3.2038835,4.75862069 C3.2038835,3.88303448 3.9215534,3.17241379 4.80582524,3.17241379 C5.69009709,3.17241379 6.40776699,3.88303448 6.40776699,4.75862069 Z" id="Stroke-210"></path>
                    <polygon id="Stroke-212" points="3.2038835 17.4482759 6.40776699 17.4482759 6.40776699 7.93103448 3.2038835 7.93103448"></polygon>
                    <path d="M18.8228155,0 L1.20145631,0 C0.537451456,0 0,0.532172414 0,1.18965517 L0,18.637931 C0,19.2954138 0.537451456,19.8275862 1.20145631,19.8275862 L18.8228155,19.8275862 C19.4868204,19.8275862 20.0242718,19.2954138 20.0242718,18.637931 L20.0242718,1.18965517 C20.0242718,0.532172414 19.4868204,0 18.8228155,0 Z" id="Stroke-214"></path>
                    <path d="M14.0169903,7.93103448 C12.8780097,7.93103448 11.8743932,8.4647931 11.2135922,9.28248276 L11.2135922,7.93103448 L8.00970874,7.93103448 L8.00970874,17.4482759 L10.4126214,17.4482759 L11.2135922,17.4482759 L11.2135922,11.8965517 C11.2135922,11.0209655 11.9312621,10.3103448 12.815534,10.3103448 C13.6998058,10.3103448 14.4174757,11.0209655 14.4174757,11.8965517 L14.4174757,17.4482759 L17.6213592,17.4482759 L17.6213592,11.5 C17.6213592,9.52913793 16.0074029,7.93103448 14.0169903,7.93103448 Z" id="Stroke-215"></path>
                </g>
            </g>
        </g>
    </g>
</svg>