<?xml version="1.0" encoding="UTF-8"?>
<svg width="25px" height="21px" viewBox="0 0 25 21" version="1.1" xmlns="http://www.w3.org/2000/svg" xmlns:xlink="http://www.w3.org/1999/xlink">
    <!-- Generator: Sketch 52.1 (67048) - http://www.bohemiancoding.com/sketch -->
    <title>Stroke 89</title>
    <desc>Created with Sketch.</desc>
    <g id="Armada-Chain-V.2" stroke="none" stroke-width="1" fill="none" fill-rule="evenodd" stroke-linecap="round" stroke-linejoin="round">
        <g id="Armadachain-v.2.2" transform="translate(-1100.000000, -4482.000000)" stroke="#FFFFFF" stroke-width="0.8">
            <g id="Group-11" transform="translate(1054.000000, 4481.000000)">
                <path d="M47.9709466,3.33896552 C49.9157039,5.68575862 53.3975243,7.90089655 58.0703883,8.13962069 C57.8124757,7.12048276 57.7876456,4.35334483 59.8253155,3.20413793 C60.7368204,2.68941379 61.599466,2.37931034 62.6150971,2.37931034 C63.8918447,2.37931034 64.9403155,2.79489655 66.055267,3.80768966 C66.961966,3.68237931 68.6576214,2.99 69.0597087,2.71796552 C68.7977913,3.67206897 67.7501214,4.89741379 66.9932039,5.18848276 C67.6884466,5.18689655 69.2158981,4.79193103 69.684466,4.55875862 C69.0348786,5.55172414 67.9007039,6.50186207 67.2799515,6.89603448 C67.9984223,13.0116552 62.2650728,20.6127586 54.0302913,20.6206897 C51.6786408,20.623069 49.1235437,20.148 46.4563107,18.7005862 C49.0875,18.9932414 51.9069175,18.1826897 53.5256796,16.7804828 C51.4840049,16.736069 49.416699,15.4282414 48.4763592,13.4201034 C49.499199,13.7222759 50.4419417,13.8761379 51.0010194,13.4201034 C50.0478641,13.3185862 46.9609223,11.7109655 46.9609223,8.59803448 C47.6705825,9.15637931 48.6918204,9.73296552 49.4863835,9.57989655 C48.1872087,8.84786207 46.2985194,6.06327586 47.9709466,3.33896552 Z" id="Stroke-89"></path>
            </g>
        </g>
    </g>
</svg>