<?xml version="1.0" encoding="UTF-8"?>
<svg width="643px" height="539px" viewBox="0 0 643 539" version="1.1" xmlns="http://www.w3.org/2000/svg" xmlns:xlink="http://www.w3.org/1999/xlink">
    <!-- Generator: Sketch 52.1 (67048) - http://www.bohemiancoding.com/sketch -->
    <title>aset</title>
    <desc>Created with Sketch.</desc>
    <defs>
        <linearGradient x1="49.2890896%" y1="41.7269149%" x2="148.795495%" y2="157.425023%" id="linearGradient-1">
            <stop stop-color="#52CAD9" offset="0%"></stop>
            <stop stop-color="#FFFFFF" offset="50%"></stop>
        </linearGradient>
        <linearGradient x1="47.1137445%" y1="31.5990877%" x2="105.110583%" y2="185.72225%" id="linearGradient-2">
            <stop stop-color="#52CAD9" stop-opacity="0.05" offset="0%"></stop>
            <stop stop-color="#FFFFFF" offset="50%"></stop>
        </linearGradient>
        <linearGradient x1="50%" y1="44.5%" x2="50.3424658%" y2="50.5%" id="linearGradient-3">
            <stop stop-color="#52CAD9" stop-opacity="0.05" offset="0%"></stop>
            <stop stop-color="#FFFFFF" offset="50%"></stop>
        </linearGradient>
        <linearGradient x1="50.1618123%" y1="48.5%" x2="50.1618123%" y2="54.5%" id="linearGradient-4">
            <stop stop-color="#52CAD9" stop-opacity="0.05" offset="0%"></stop>
            <stop stop-color="#FFFFFF" offset="50%"></stop>
        </linearGradient>
        <linearGradient x1="0%" y1="50.0009979%" x2="100%" y2="50.0009979%" id="linearGradient-5">
            <stop stop-color="#00A3B9" offset="0%"></stop>
            <stop stop-color="#00B2CA" offset="50%"></stop>
            <stop stop-color="#00BCD5" offset="75%"></stop>
        </linearGradient>
        <linearGradient x1="27.3628538%" y1="47.0683141%" x2="63.0808102%" y2="48.6898805%" id="linearGradient-6">
            <stop stop-color="#00A3B9" offset="0%"></stop>
            <stop stop-color="#00B2CA" offset="50%"></stop>
            <stop stop-color="#00BCD5" offset="75%"></stop>
        </linearGradient>
        <linearGradient x1="41.3448294%" y1="44.8710721%" x2="161.065039%" y2="85.4120644%" id="linearGradient-7">
            <stop stop-color="#058F99" offset="0%"></stop>
            <stop stop-color="#00BCD5" offset="75%"></stop>
        </linearGradient>
        <linearGradient x1="49.8016287%" y1="-9.58705627%" x2="50.5951138%" y2="162.666023%" id="linearGradient-8">
            <stop stop-color="#007180" offset="0%"></stop>
            <stop stop-color="#00BCD5" offset="75%"></stop>
        </linearGradient>
        <linearGradient x1="59.4998222%" y1="-55.4899165%" x2="44.1033543%" y2="115.400285%" id="linearGradient-9">
            <stop stop-color="#FFFFFF" offset="0%"></stop>
            <stop stop-color="#00BCD5" offset="75%"></stop>
        </linearGradient>
        <linearGradient x1="86.8126674%" y1="15.348964%" x2="2.94627383%" y2="94.3293348%" id="linearGradient-10">
            <stop stop-color="#FFFFFF" offset="0%"></stop>
            <stop stop-color="#00BCD5" offset="75%"></stop>
        </linearGradient>
        <linearGradient x1="20.2759549%" y1="116.734694%" x2="66.7676258%" y2="12.3562152%" id="linearGradient-11">
            <stop stop-color="#FFFFFF" offset="0%"></stop>
            <stop stop-color="#00BCD5" offset="75%"></stop>
        </linearGradient>
        <linearGradient x1="46.7302855%" y1="42.6492575%" x2="50.4808404%" y2="51.0714642%" id="linearGradient-12">
            <stop stop-color="#058F99" offset="0%"></stop>
            <stop stop-color="#00BCD5" offset="75%"></stop>
        </linearGradient>
        <linearGradient x1="52.3681859%" y1="50.6754149%" x2="-27.7368186%" y2="27.4990351%" id="linearGradient-13">
            <stop stop-color="#058F99" offset="0%"></stop>
            <stop stop-color="#00BCD5" offset="75%"></stop>
        </linearGradient>
        <linearGradient x1="81.9622642%" y1="30.1196982%" x2="-5.16981132%" y2="84.3351548%" id="linearGradient-14">
            <stop stop-color="#FFFFFF" offset="0%"></stop>
            <stop stop-color="#00BCD5" offset="75%"></stop>
        </linearGradient>
        <linearGradient x1="54.458421%" y1="50.6333314%" x2="81.2905165%" y2="115.492444%" id="linearGradient-15">
            <stop stop-color="#058F99" offset="0%"></stop>
            <stop stop-color="#00BCD5" offset="75%"></stop>
        </linearGradient>
        <linearGradient x1="-0.659540289%" y1="49.9865931%" x2="99.5008618%" y2="49.9865931%" id="linearGradient-16">
            <stop stop-color="#FFFFFF" offset="0%"></stop>
            <stop stop-color="#00BCD5" offset="75%"></stop>
        </linearGradient>
        <linearGradient x1="-0.659540289%" y1="49.9480827%" x2="99.5008618%" y2="49.9480827%" id="linearGradient-17">
            <stop stop-color="#FFFFFF" offset="0%"></stop>
            <stop stop-color="#00BCD5" offset="75%"></stop>
        </linearGradient>
        <linearGradient x1="86.9448183%" y1="131.651734%" x2="5.26020637%" y2="24.8928711%" id="linearGradient-18">
            <stop stop-color="#058F99" offset="0%"></stop>
            <stop stop-color="#00BCD5" offset="75%"></stop>
            <stop stop-color="#FEFFFF" offset="95%"></stop>
        </linearGradient>
        <linearGradient x1="49.8121086%" y1="-9.58705627%" x2="50.5845511%" y2="162.666023%" id="linearGradient-19">
            <stop stop-color="#007180" offset="0%"></stop>
            <stop stop-color="#00BCD5" offset="75%"></stop>
        </linearGradient>
        <linearGradient x1="59.5116748%" y1="-55.5102872%" x2="44.1033543%" y2="115.400285%" id="linearGradient-20">
            <stop stop-color="#FFFFFF" offset="0%"></stop>
            <stop stop-color="#00BCD5" offset="75%"></stop>
        </linearGradient>
        <linearGradient x1="0%" y1="50.0141203%" x2="100%" y2="50.0141203%" id="linearGradient-21">
            <stop stop-color="#FFFFFF" offset="0%"></stop>
            <stop stop-color="#00BCD5" offset="75%"></stop>
        </linearGradient>
        <linearGradient x1="0%" y1="50%" x2="100%" y2="50%" id="linearGradient-22">
            <stop stop-color="#FFFFFF" offset="0%"></stop>
            <stop stop-color="#00BCD5" offset="75%"></stop>
        </linearGradient>
        <linearGradient x1="0%" y1="50.0175377%" x2="100%" y2="50.0175377%" id="linearGradient-23">
            <stop stop-color="#FFFFFF" offset="0%"></stop>
            <stop stop-color="#00BCD5" offset="75%"></stop>
        </linearGradient>
        <linearGradient x1="-0.421052632%" y1="48.7923032%" x2="100%" y2="48.7923032%" id="linearGradient-24">
            <stop stop-color="#FFFFFF" offset="0%"></stop>
            <stop stop-color="#00BCD5" offset="75%"></stop>
        </linearGradient>
        <linearGradient x1="57.6122621%" y1="-97.5735862%" x2="48.4643691%" y2="152.443245%" id="linearGradient-25">
            <stop stop-color="#FFFFFF" offset="0%"></stop>
            <stop stop-color="#00BCD5" offset="75%"></stop>
        </linearGradient>
        <linearGradient x1="570.47619%" y1="54.940457%" x2="-448.571429%" y2="45.2848407%" id="linearGradient-26">
            <stop stop-color="#FFFFFF" offset="0%"></stop>
            <stop stop-color="#00BCD5" offset="75%"></stop>
        </linearGradient>
        <linearGradient x1="0%" y1="50.0621118%" x2="100%" y2="50.0621118%" id="linearGradient-27">
            <stop stop-color="#FFFFFF" offset="0%"></stop>
            <stop stop-color="#00BCD5" offset="75%"></stop>
        </linearGradient>
        <linearGradient x1="126.555024%" y1="50.0905868%" x2="-169.856459%" y2="49.7203623%" id="linearGradient-28">
            <stop stop-color="#FFFFFF" offset="0%"></stop>
            <stop stop-color="#00BCD5" offset="75%"></stop>
        </linearGradient>
        <linearGradient x1="0%" y1="49.943757%" x2="100%" y2="49.943757%" id="linearGradient-29">
            <stop stop-color="#FFFFFF" offset="0%"></stop>
            <stop stop-color="#00BCD5" offset="75%"></stop>
        </linearGradient>
        <linearGradient x1="0%" y1="49.9515034%" x2="100%" y2="49.9515034%" id="linearGradient-30">
            <stop stop-color="#FFFFFF" offset="0%"></stop>
            <stop stop-color="#00BCD5" offset="75%"></stop>
        </linearGradient>
        <linearGradient x1="0%" y1="50%" x2="100.012366%" y2="50%" id="linearGradient-31">
            <stop stop-color="#FFFFFF" offset="0%"></stop>
            <stop stop-color="#00BCD5" offset="75%"></stop>
        </linearGradient>
        <linearGradient x1="0%" y1="50.0114181%" x2="100%" y2="50.0114181%" id="linearGradient-32">
            <stop stop-color="#FFFFFF" offset="0%"></stop>
            <stop stop-color="#00BCD5" offset="75%"></stop>
        </linearGradient>
        <linearGradient x1="63.0376344%" y1="3.9703154%" x2="-69.6460573%" y2="367.198516%" id="linearGradient-33">
            <stop stop-color="#007180" offset="0%"></stop>
            <stop stop-color="#00BCD5" offset="75%"></stop>
        </linearGradient>
        <linearGradient x1="84.2364532%" y1="68.9278752%" x2="9.31482311%" y2="27.5243665%" id="linearGradient-34">
            <stop stop-color="#007180" offset="0%"></stop>
            <stop stop-color="#00BCD5" offset="75%"></stop>
        </linearGradient>
        <linearGradient x1="62.9546475%" y1="3.68144252%" x2="-68.9492591%" y2="368.444778%" id="linearGradient-35">
            <stop stop-color="#007180" offset="0%"></stop>
            <stop stop-color="#00BCD5" offset="75%"></stop>
        </linearGradient>
        <linearGradient x1="84.3062416%" y1="69.1397001%" x2="9.22766053%" y2="27.2296764%" id="linearGradient-36">
            <stop stop-color="#007180" offset="0%"></stop>
            <stop stop-color="#00BCD5" offset="75%"></stop>
        </linearGradient>
        <linearGradient x1="49.7991019%" y1="-9.59278491%" x2="50.5790593%" y2="162.640066%" id="linearGradient-37">
            <stop stop-color="#007180" offset="0%"></stop>
            <stop stop-color="#00BCD5" offset="75%"></stop>
        </linearGradient>
        <linearGradient x1="59.498256%" y1="-55.499193%" x2="44.0971291%" y2="115.402352%" id="linearGradient-38">
            <stop stop-color="#FFFFFF" offset="0%"></stop>
            <stop stop-color="#00BCD5" offset="75%"></stop>
        </linearGradient>
        <linearGradient x1="49.8109641%" y1="-9.59540733%" x2="50.5907372%" y2="162.65719%" id="linearGradient-39">
            <stop stop-color="#007180" offset="0%"></stop>
            <stop stop-color="#00BCD5" offset="75%"></stop>
        </linearGradient>
        <linearGradient x1="59.5116716%" y1="-55.499193%" x2="44.1105447%" y2="115.402352%" id="linearGradient-40">
            <stop stop-color="#FFFFFF" offset="0%"></stop>
            <stop stop-color="#00BCD5" offset="75%"></stop>
        </linearGradient>
        <linearGradient x1="49.8225099%" y1="-9.58705627%" x2="50.5951138%" y2="162.666023%" id="linearGradient-41">
            <stop stop-color="#007180" offset="0%"></stop>
            <stop stop-color="#00BCD5" offset="75%"></stop>
        </linearGradient>
        <linearGradient x1="59.4998222%" y1="-55.4899165%" x2="44.1033543%" y2="115.420656%" id="linearGradient-42">
            <stop stop-color="#FFFFFF" offset="0%"></stop>
            <stop stop-color="#00BCD5" offset="75%"></stop>
        </linearGradient>
        <linearGradient x1="49.8016287%" y1="-9.58705627%" x2="50.5951138%" y2="162.641874%" id="linearGradient-43">
            <stop stop-color="#007180" offset="0%"></stop>
            <stop stop-color="#00BCD5" offset="75%"></stop>
        </linearGradient>
        <linearGradient x1="59.4998222%" y1="-55.5102872%" x2="44.1033543%" y2="115.400285%" id="linearGradient-44">
            <stop stop-color="#FFFFFF" offset="0%"></stop>
            <stop stop-color="#00BCD5" offset="75%"></stop>
        </linearGradient>
        <linearGradient x1="49.8016287%" y1="-9.61120502%" x2="50.5951138%" y2="162.641874%" id="linearGradient-45">
            <stop stop-color="#007180" offset="0%"></stop>
            <stop stop-color="#00BCD5" offset="75%"></stop>
        </linearGradient>
        <linearGradient x1="59.4998222%" y1="-55.4786151%" x2="44.1033543%" y2="115.397149%" id="linearGradient-46">
            <stop stop-color="#FFFFFF" offset="0%"></stop>
            <stop stop-color="#00BCD5" offset="75%"></stop>
        </linearGradient>
        <linearGradient x1="59.5116748%" y1="-55.4899165%" x2="44.1033543%" y2="115.420656%" id="linearGradient-47">
            <stop stop-color="#FFFFFF" offset="0%"></stop>
            <stop stop-color="#00BCD5" offset="75%"></stop>
        </linearGradient>
        <linearGradient x1="49.8016287%" y1="-9.58705627%" x2="50.5742326%" y2="162.641874%" id="linearGradient-48">
            <stop stop-color="#007180" offset="0%"></stop>
            <stop stop-color="#00BCD5" offset="75%"></stop>
        </linearGradient>
        <linearGradient x1="59.5116748%" y1="-55.5102872%" x2="44.1152068%" y2="115.400285%" id="linearGradient-49">
            <stop stop-color="#FFFFFF" offset="0%"></stop>
            <stop stop-color="#00BCD5" offset="75%"></stop>
        </linearGradient>
        <linearGradient x1="-1.48355217%" y1="113.182196%" x2="173.73165%" y2="-104.535108%" id="linearGradient-50">
            <stop stop-color="#F0AE7C" offset="1%"></stop>
            <stop stop-color="#FFEF7B" offset="93%"></stop>
        </linearGradient>
        <linearGradient x1="43.2789151%" y1="48.0340954%" x2="81.96032%" y2="114.501289%" id="linearGradient-51">
            <stop stop-color="#00A7BD" stop-opacity="0.05" offset="0%"></stop>
            <stop stop-color="#FFFFFF" stop-opacity="0.2" offset="50%"></stop>
        </linearGradient>
        <linearGradient x1="44.1688437%" y1="51.0790615%" x2="161.615127%" y2="28.3698665%" id="linearGradient-52">
            <stop stop-color="#F0AE7C" offset="1%"></stop>
            <stop stop-color="#FFEF7B" offset="93%"></stop>
        </linearGradient>
        <linearGradient x1="-82.5619949%" y1="25.3863628%" x2="488.107716%" y2="111.629164%" id="linearGradient-53">
            <stop stop-color="#CE8E63" offset="1%"></stop>
            <stop stop-color="#FFEF65" offset="93%"></stop>
        </linearGradient>
        <linearGradient x1="124.012976%" y1="39.7832869%" x2="-86.3390633%" y2="66.3630421%" id="linearGradient-54">
            <stop stop-color="#CE8E63" offset="1%"></stop>
            <stop stop-color="#F4BF9A" offset="93%"></stop>
        </linearGradient>
        <linearGradient x1="-0.0164225733%" y1="69.1711375%" x2="152.894157%" y2="11.2713447%" id="linearGradient-55">
            <stop stop-color="#00A7BD" stop-opacity="0.05" offset="0%"></stop>
            <stop stop-color="#FFFFFF" stop-opacity="0.2" offset="50%"></stop>
        </linearGradient>
        <linearGradient x1="116.843419%" y1="6.55105973%" x2="-134.934498%" y2="155.732177%" id="linearGradient-56">
            <stop stop-color="#CE8E63" offset="1%"></stop>
            <stop stop-color="#FFEF65" offset="93%"></stop>
        </linearGradient>
        <linearGradient x1="17.2131148%" y1="10.8625%" x2="124.914617%" y2="182.525%" id="linearGradient-57">
            <stop stop-color="#52CAD9" stop-opacity="0.05" offset="0%"></stop>
            <stop stop-color="#FFFFFF" offset="50%"></stop>
        </linearGradient>
        <linearGradient x1="-0.158767494%" y1="49.9764789%" x2="100.00588%" y2="49.9764789%" id="linearGradient-58">
            <stop stop-color="#52CAD9" stop-opacity="0.05" offset="0%"></stop>
            <stop stop-color="#FFFFFF" offset="50%"></stop>
        </linearGradient>
        <linearGradient x1="-0.0117302053%" y1="50.096463%" x2="100.258065%" y2="50.096463%" id="linearGradient-59">
            <stop stop-color="#52CAD9" stop-opacity="0.05" offset="0%"></stop>
            <stop stop-color="#FFFFFF" offset="50%"></stop>
        </linearGradient>
        <linearGradient x1="-0.492517522%" y1="50%" x2="100.492518%" y2="50%" id="linearGradient-60">
            <stop stop-color="#52CAD9" stop-opacity="0.05" offset="0%"></stop>
            <stop stop-color="#FFFFFF" offset="50%"></stop>
        </linearGradient>
        <linearGradient x1="-3.5%" y1="49.9794661%" x2="103.5%" y2="49.9794661%" id="linearGradient-61">
            <stop stop-color="#52CAD9" stop-opacity="0.05" offset="0%"></stop>
            <stop stop-color="#FFFFFF" offset="50%"></stop>
        </linearGradient>
        <linearGradient x1="12.1437966%" y1="-81.9158264%" x2="202.849627%" y2="582.770715%" id="linearGradient-62">
            <stop stop-color="#52CAD9" stop-opacity="0.05" offset="0%"></stop>
            <stop stop-color="#FFFFFF" offset="50%"></stop>
        </linearGradient>
    </defs>
    <g id="Armada-Chain-V.2" stroke="none" stroke-width="1" fill="none" fill-rule="evenodd">
        <g id="Armadachain-v.2.2" transform="translate(-797.000000, -97.000000)">
            <g id="aset" transform="translate(798.000000, 97.000000)">
                <path d="M643,437.68 C641.09,441.41 637.17,443.61 633.37,445.38 C577.29,471.38 511.46,445.66 449.88,451.11 C357.93,459.24 281.66,536.29 189.4,539 C164.4,539.73 135.97,532.53 123.99,510.52 C121.758414,506.607758 120.419776,502.250353 120.07,497.76 C120.01012,496.82429 120.01012,495.88571 120.07,494.95 C121.34,477.23 142.8,467.57 148,450.59 C150.95,440.94 148,431.19 142.15,422.81 C202.67,398.81 259.84,358.6 324.84,352.81 C386.43,347.36 452.26,373.11 508.33,347.07 C512.13,345.31 516.05,343.07 517.96,339.37 C519.54,336.3 519.49,332.67 519.4,329.21 C516.84,228.883333 514.273333,128.546667 511.7,28.2 C534.19,26.11 568.05,23.28 594.64,29.11 C617.27,34.11 634.64,45.31 635.24,68.64 L644.42,427.52 C644.51,431 644.56,434.6 643,437.68 Z" id="Path" fill="#17CFDD" fill-rule="nonzero"></path>
                <path d="M602.44,399.38 C600.53,403.11 596.61,405.32 592.81,407.08 C536.74,433.08 470.91,407.37 409.32,412.82 C317.38,420.95 241.1,498 148.84,500.71 C139.156878,501.04812 129.473169,500.055523 120.06,497.76 C120.00012,496.82429 120.00012,495.88571 120.06,494.95 C121.33,477.23 142.79,467.57 147.99,450.59 C150.94,440.94 147.99,431.19 142.14,422.81 C141.86,422.4 141.57,421.99 141.27,421.59 L141.27,421.54 C140.97,421.14 140.66,420.74 140.35,420.35 C140.04,419.96 139.84,419.7 139.57,419.35 C138.963333,418.623333 138.333333,417.903333 137.68,417.19 C137.43,416.91 137.18,416.64 136.92,416.38 C136.66,416.12 136.31,415.74 135.99,415.43 C135.67,415.12 135.26,414.7 134.88,414.33 C134.22,413.7 133.54,413.08 132.88,412.48 L131.7,411.48 C131.3,411.14 130.9,410.82 130.49,410.48 C130.08,410.14 129.49,409.71 129.01,409.34 C128.53,408.97 128.25,408.78 127.87,408.52 C127.49,408.26 127.07,407.95 126.67,407.68 C125.86,407.13 125.04,406.6 124.22,406.1 C124.13,406.05 124.05,405.99 123.96,405.95 C118.79,402.79 113.3,400.11 107.8,397.46 C96.94,392.23 -33,312.39 91.24,237.22 C112.94,225.56 137.62,220.97 161.85,216.53 L232.51,203.59 C253.86,199.68 276.42,195.2 292.51,180.59 C324.34,151.59 316.82,96.9 345.17,64.52 C381.46,23 454.37,33.38 503.52,29 L506.44,28.73 L507.44,28.64 L508.53,28.54 L511.62,28.25 L511.74,28.25 C534.23,26.16 568.09,23.33 594.68,29.16 C594.68,29.57 594.68,29.98 594.73,30.4 C597.803333,150.02 600.866667,269.643333 603.92,389.27 C604,392.68 604,396.31 602.44,399.38 Z" id="Path" fill="url(#linearGradient-1)" fill-rule="nonzero"></path>
                <path d="M518,339.41 C516.09,343.14 512.17,345.35 508.37,347.11 C452.3,373.11 386.47,347.4 324.88,352.85 C259.88,358.6 202.71,398.79 142.19,422.85 C141.91,422.44 141.62,422.03 141.32,421.63 L141.32,421.58 C141.02,421.18 140.72,420.78 140.4,420.39 C140.08,420 139.89,419.74 139.62,419.39 C139.013333,418.663333 138.383333,417.943333 137.73,417.23 C137.48,416.95 137.23,416.68 136.97,416.42 C136.71,416.16 136.36,415.78 136.04,415.47 C135.72,415.16 135.31,414.74 134.93,414.37 C134.27,413.74 133.58,413.12 132.93,412.52 C132.54,412.17 132.15,411.84 131.75,411.52 C131.35,411.2 130.95,410.86 130.54,410.52 C130.13,410.18 129.54,409.75 129.06,409.38 C128.58,409.01 128.3,408.82 127.92,408.56 C127.54,408.3 127.12,407.99 126.72,407.72 C125.91,407.17 125.09,406.64 124.27,406.14 C124.18,406.09 124.1,406.03 124.01,405.99 C118.84,402.83 113.35,400.15 107.85,397.5 C96.99,392.27 -32.95,312.43 91.29,237.26 C112.37,224.51 137.67,221.01 161.9,216.57 L232.56,203.63 C253.91,199.72 276.47,195.24 292.56,180.63 C324.39,151.63 316.87,96.94 345.22,64.56 C381.46,23 454.37,33.38 503.52,29 L506.44,28.73 L507.44,28.64 L508.53,28.54 L511.62,28.25 L511.74,28.25 C514.32,128.603333 516.89,228.953333 519.45,329.3 C519.5,332.71 519.55,336.34 518,339.41 Z" id="Path" fill="url(#linearGradient-2)" fill-rule="nonzero"></path>
                <path d="M345.64,142.37 C396.27,163.6 420.89,190.1 467.89,218.49 C474.47,222.49 481.49,227.1 483.89,234.41 C488.35,248.2 474.23,260.41 461.89,268.03 L424,291.58 C419.14,294.58 414.2,297.7 410.52,302.08 C408.28,304.75 406.52,307.87 403.88,310.13 C397.39,315.66 387.83,314.53 379.31,314.94 C358.49,315.94 340.04,327.78 321.14,336.58 C269.9,360.43 208.57,364.19 165.07,400.27 C159.19,405.15 153.25,412.68 156.34,419.67 C157.48,422.26 159.71,424.2 161.98,425.9 C173.507059,434.453405 187.57143,438.890337 201.92,438.5 L190.51,443.7 C185.72,449.6 187.79,459.04 193.36,464.22 C198.93,469.4 206.91,471.09 214.51,471.34 C222.542853,471.598375 230.560987,470.485778 238.22,468.05 C249.97,464.31 261.33,457.39 273.62,458.44 C277.79218,458.952278 281.894205,459.928312 285.85,461.35 L324.7,473.72 C337.53,477.8 354.54,480.54 361.85,469.23 C365.78,463.15 365,455.32 365.13,448.07 C365.59,422.07 379.5,398.28 395.32,377.66 C448.66,308.11 526.78,261.18 608.32,229.12 C613.07,227.25 618.88,223.12 616.69,218.47 C615.86,216.73 614.07,215.69 612.38,214.76 C553.866667,182.58 494.223333,152.58 433.45,124.76 C413.92,115.82 402.34,117.49 382.86,123.87 C371.331709,131.665218 358.814521,137.886819 345.64,142.37 Z" id="Path" fill="#058F99" fill-rule="nonzero" opacity="0.25"></path>
                <path d="M503.52,29 L506.44,28.73 L503.52,29 Z" id="Path" fill="url(#linearGradient-3)" fill-rule="nonzero"></path>
                <path d="M511.58,28.21 L508.49,28.5 L511.58,28.21 Z" id="Path" fill="url(#linearGradient-4)" fill-rule="nonzero"></path>
                <polygon id="Path" fill="url(#linearGradient-5)" fill-rule="nonzero" points="589.09 235.22 394.56 120.3 394.56 110.29 746.58 0 746.58 456.3 671.06 501.07 501.72 403.25 374.79 476.47 279.56 420.59 279.56 410.24"></polygon>
                <polygon id="Path" fill="url(#linearGradient-6)" fill-rule="nonzero" points="746.58 445.94 671.06 489.65 501.72 391.93 374.1 464.82 279.56 410.24 596.99 226.95 394.56 110.29 586.41 0 746.58 0"></polygon>
                <path d="M518.4,324 C515.67,324.09 512.23,324.72 511.59,327.38 C510.99,329.86 513.35,331.93 514.59,334.16 C516.59,337.79 515.59,342.51 513.09,345.83 C510.59,349.15 506.92,351.35 503.26,353.3 C498.9,355.633333 494.436667,357.753333 489.87,359.66 C491.58,364.66 499.36,367.4 498.11,372.57 C497.752158,373.672604 497.177573,374.692577 496.42,375.57 L483.08,393.5 C479.74,397.96 476.38,402.45 472.25,406.19 C467.964272,409.864898 463.266111,413.029446 458.25,415.62 C430.115456,431.105582 399.012388,440.438206 367,443 C362.66,443.34 358.24,443.55 354,442.48 C350.771985,441.509881 347.667786,440.167524 344.75,438.48 L309.19,419.82 C310.65,416.11 314.57,414.11 318.19,412.4 C342.61,400.83 366.6,388.4 390.58,375.93 C403.49,369.23 416.51,362.46 427.74,353.21 C435.01,347.21 441.46,340.27 448.95,334.55 C456.44,328.83 465.33,324.32 474.75,324.33 C474.42,319.93 470.61,316.75 467.61,313.51 C464.61,310.27 462.12,305.27 464.67,301.66 C472.25,302.66 479.13,307.48 486.77,307.4 C490.64,307.4 494.36,306.05 498.06,304.93 C511.88,300.74 540.99,291.73 548.34,308.93 C556.91,328.93 530.47,323.67 518.4,324 Z" id="Path" fill="url(#linearGradient-7)" fill-rule="nonzero"></path>
                <polygon id="Path" fill="url(#linearGradient-8)" fill-rule="nonzero" points="562.37 297.24 538.39 283.39 538.31 310.95 562.29 324.8 586.12 310.95 586.2 283.39"></polygon>
                <polygon id="Path" fill="url(#linearGradient-9)" fill-rule="nonzero" points="622.76 262 562.37 297.24 538.39 283.39 598.77 248.15"></polygon>
                <polygon id="Path" fill="#007180" fill-rule="nonzero" points="622.13 262.31 622.05 289.87 562.29 324.8 562.37 297.24"></polygon>
                <g id="Group" transform="translate(347.000000, 249.000000)" fill-rule="nonzero">
                    <polygon id="Path" fill="url(#linearGradient-10)" points="64.15 35.01 60.02 37.43 0.68 3.17 4.81 0.75"></polygon>
                    <polygon id="Path" fill="url(#linearGradient-11)" points="60.02 37.43 59.93 57.07 0.59 22.81 0.68 3.17"></polygon>
                </g>
                <g id="Group" transform="translate(207.000000, 265.000000)" fill-rule="nonzero">
                    <polygon id="Path" fill="url(#linearGradient-12)" points="136.17 0.78 136.08 22.6 0.99 101.11 1.08 79.28"></polygon>
                    <polygon id="Path" fill="#007180" points="195.42 46.08 60.33 124.59 0.99 90.33 136.08 11.82"></polygon>
                </g>
                <g id="Group" transform="translate(311.000000, 230.000000)" fill-rule="nonzero">
                    <polygon id="Path" fill="url(#linearGradient-13)" points="90.43 31.39 53.83 52.66 0.91 22.1 37.51 0.84"></polygon>
                    <polygon id="Path" fill="#007180" points="90.43 31.39 90.35 77.69 53.75 98.96 53.83 52.66"></polygon>
                    <polygon id="Path" fill="url(#linearGradient-14)" points="53.83 52.66 53.75 98.96 0.83 68.41 0.91 22.1"></polygon>
                </g>
                <path d="M411.15,284 L411.15,300.19 C411.15,310.92 405.15,320.26 405.15,320.26 L254.29,407.66 C216.29,420.15 178.22,384.6 178.22,384.6 C181.22,384.6 238.11,384.17 254.38,374.71 L267.38,367.52 L267.38,378.67 L383.62,310.89 C383.638954,303.987871 387.3461,297.622412 393.34,294.2 L411.15,284 Z" id="Path" fill="url(#linearGradient-15)" fill-rule="nonzero"></path>
                <path d="M353.28,244.61 C353.284804,244.530072 353.284804,244.449928 353.28,244.37 L351.8,222.13 L342.8,222.13 L341.32,244.38 C341.29377,245.553906 341.98772,246.624572 343.07,247.08 C345.744628,248.43595 348.905372,248.43595 351.58,247.08 C352.567371,246.6374 353.239896,245.697393 353.34,244.62 L353.28,244.61 Z" id="Path" fill="url(#linearGradient-16)" fill-rule="nonzero"></path>
                <path d="M350.46,224 C348.448794,225.020859 346.071206,225.020859 344.06,224 C342.29,223 342.29,221.33 344.06,220.31 C346.071206,219.289141 348.448794,219.289141 350.46,220.31 C352.23,221.3 352.23,223 350.46,224 Z" id="Path" fill="#007180" fill-rule="nonzero"></path>
                <path d="M376.65,258.9 C376.654804,258.820072 376.654804,258.739928 376.65,258.66 L375.17,236.42 L366.17,236.42 L364.69,258.67 C364.66377,259.843906 365.35772,260.914572 366.44,261.37 C369.114628,262.72595 372.275372,262.72595 374.95,261.37 C375.937371,260.9274 376.609896,259.987393 376.71,258.91 L376.65,258.9 Z" id="Path" fill="url(#linearGradient-17)" fill-rule="nonzero"></path>
                <path d="M373.83,238.26 C371.818794,239.280859 369.441206,239.280859 367.43,238.26 C365.66,237.26 365.66,235.59 367.43,234.57 C369.441206,233.549141 371.818794,233.549141 373.83,234.57 C375.59,235.58 375.59,237.24 373.83,238.26 Z" id="Path" fill="#007180" fill-rule="nonzero"></path>
                <path d="M267.33,367.55 L254.33,374.74 C238.05,384.2 181.16,384.61 178.17,384.63 C178.17,382.9 178.72,349.94 195,340.48 L208,333.29 L267.33,367.55 Z" id="Path" fill="url(#linearGradient-18)" fill-rule="nonzero"></path>
                <polygon id="Path" fill="url(#linearGradient-19)" fill-rule="nonzero" points="417.12 258.23 393.13 244.38 393.05 271.94 417.04 285.79 440.87 271.94 440.95 244.38"></polygon>
                <polygon id="Path" fill="url(#linearGradient-20)" fill-rule="nonzero" points="477.5 222.99 417.12 258.23 393.13 244.38 453.52 209.14"></polygon>
                <polygon id="Path" fill="#007180" fill-rule="nonzero" points="476.88 223.3 476.8 250.86 417.04 285.79 417.12 258.23"></polygon>
                <g id="Group" transform="translate(470.000000, 308.000000)" fill-rule="nonzero">
                    <polygon id="Path" fill="url(#linearGradient-21)" points="61.15 23.14 40.16 35.62 0.52 12.69 21.51 0.21"></polygon>
                    <polygon id="Path" fill="url(#linearGradient-22)" points="61.15 23.14 61.1 28.72 40.11 41.2 40.16 35.62"></polygon>
                    <polygon id="Path" fill="url(#linearGradient-23)" points="40.16 35.62 40.11 41.2 0.48 18.28 0.52 12.69"></polygon>
                </g>
                <g id="Group" transform="translate(487.000000, 226.000000)" fill-rule="nonzero">
                    <polygon id="Path" fill="url(#linearGradient-22)" points="5.34 97.13 0.67 94.4 0.5 2.77 5.16 5.48"></polygon>
                    <polygon id="Path" fill="url(#linearGradient-22)" points="5.16 5.48 0.5 2.77 4.7 0.34 9.37 3.05"></polygon>
                    <polygon id="Path" fill="#007180" points="9.66 3.55 9.83 94.51 5.34 97.13 5.16 5.48"></polygon>
                </g>
                <g id="Group" transform="translate(432.000000, 227.000000)" fill-rule="nonzero">
                    <path d="M5.88,1.79 L5.88,3.79 C5.85245766,4.22522668 5.58711631,4.60977936 5.19,4.79 C4.13418472,5.32623459 2.88581528,5.32623459 1.83,4.79 C1.43045683,4.61083959 1.16158225,4.22673305 1.13,3.79 L1.13,1.79 C1.16158225,2.22673305 1.43045683,2.61083959 1.83,2.79 C2.88581528,3.32623459 4.13418472,3.32623459 5.19,2.79 C5.58711631,2.60977936 5.85245766,2.22522668 5.88,1.79 Z" id="Path" fill="url(#linearGradient-24)"></path>
                    <path d="M5.18,0.81 C5.63500794,0.913697411 5.95779514,1.31832519 5.95779514,1.785 C5.95779514,2.25167481 5.63500794,2.65630259 5.18,2.76 C4.12418472,3.29623459 2.87581528,3.29623459 1.82,2.76 C1.26771525,2.76 0.82,2.31228475 0.82,1.76 C0.82,1.20771525 1.26771525,0.76 1.82,0.76 C2.88378001,0.239410122 4.13218133,0.257987522 5.18,0.81 Z" id="Path" fill="url(#linearGradient-25)"></path>
                </g>
                <g id="Group" transform="translate(434.000000, 197.000000)" fill-rule="nonzero">
                    <polygon id="Path" fill="#007180" points="1.48 32.39 2.43 31.84 2.44 1.37 1.48 1.93"></polygon>
                    <polygon id="Path" fill="url(#linearGradient-22)" points="1.48 1.93 2.44 1.37 1.39 0.77 0.44 1.32"></polygon>
                    <polygon id="Path" fill="url(#linearGradient-26)" points="0.44 1.32 0.43 31.79 1.48 32.39 1.48 1.93"></polygon>
                </g>
                <g id="Group" transform="translate(437.000000, 182.000000)" fill-rule="nonzero">
                    <polygon id="Path" fill="url(#linearGradient-27)" points="130.48 79.05 135.07 76.38 135.05 81.76 130.46 84.43"></polygon>
                    <polygon id="Path" fill="url(#linearGradient-22)" points="0.44 3.62 5.04 0.95 112.69 63.08 108.09 65.75"></polygon>
                    <polygon id="Path" fill="#007180" points="130.52 79.01 130.51 84.39 0.43 9 0.44 3.62"></polygon>
                </g>
                <g id="Group" transform="translate(440.000000, 183.000000)" fill-rule="nonzero">
                    <polygon id="Path" fill="url(#linearGradient-22)" points="80.96 19.77 2.21 0.49 0.37 1.56 79.12 20.84 79.4 20.89 81.24 19.82"></polygon>
                    <polygon id="Path" fill="url(#linearGradient-22)" points="81.51 20.13 81.24 19.82 79.4 20.89 79.66 21.2 106.24 63.6 108.09 62.53"></polygon>
                    <polygon id="Path" fill="#007180" points="79.36 20.83 79.63 21.15 106.21 63.55 103.06 61.54 79.26 22.45 2.91 3.52 0.33 1.5 79.09 20.78"></polygon>
                </g>
                <g id="Group" transform="translate(509.000000, 206.000000)" fill-rule="nonzero">
                    <polygon id="Path" fill="#007180" points="4.57 4.69 8.59 2.35 8.39 127 4.37 129.34"></polygon>
                    <polygon id="Path" fill="url(#linearGradient-22)" points="0.58 2.39 4.61 0.05 8.59 2.35 4.57 4.69"></polygon>
                    <polygon id="Path" fill="url(#linearGradient-28)" points="4.57 4.69 4.37 129.34 0.39 127.04 0.58 2.39"></polygon>
                </g>
                <polygon id="Path" fill="#007180" fill-rule="nonzero" points="442.04 188.03 442.04 193.66 432.38 199.55 432.18 193.21"></polygon>
                <polygon id="Path" fill="url(#linearGradient-22)" fill-rule="nonzero" points="427.25 191.6 437.44 185.62 442.04 188.03 430.98 195.16"></polygon>
                <polygon id="Path" fill="#007180" fill-rule="nonzero" points="519.6 205.88 505.91 213.72 505.84 212.46 519.6 204.62"></polygon>
                <polygon id="Path" fill="url(#linearGradient-29)" fill-rule="nonzero" points="519.6 204.63 505.91 212.45 503.36 211.24 517.2 203.56"></polygon>
                <g id="Group" transform="translate(482.000000, 219.000000)" fill-rule="nonzero">
                    <polygon id="Path" fill="url(#linearGradient-22)" points="22.47 5.29 9.54 12.72 0.9 7.73 13.83 0.3"></polygon>
                    <polygon id="Path" fill="#007180" points="22.47 5.29 22.45 10.61 9.53 18.04 9.54 12.72"></polygon>
                    <polygon id="Path" fill="url(#linearGradient-30)" points="9.54 12.72 9.53 18.04 0.89 13.05 0.9 7.73"></polygon>
                </g>
                <g id="Group" transform="translate(422.000000, 191.000000)" fill-rule="nonzero">
                    <polygon id="Path" fill="url(#linearGradient-27)" points="130.77 78.33 135.37 75.66 135.36 81.04 130.76 83.71"></polygon>
                    <polygon id="Path" fill="url(#linearGradient-22)" points="0.65 3.27 5.25 0.6 112.89 62.73 108.3 65.4"></polygon>
                    <polygon id="Path" fill="#007180" points="130.88 78.32 130.87 83.7 0.64 8.66 0.65 3.27"></polygon>
                </g>
                <g id="Group" transform="translate(425.000000, 192.000000)" fill-rule="nonzero">
                    <polygon id="Path" fill="url(#linearGradient-31)" points="81.17 19.43 2.41 0.14 0.57 1.21 79.33 20.5 79.6 20.54 81.44 19.47"></polygon>
                    <polygon id="Path" fill="url(#linearGradient-32)" points="81.71 19.79 81.44 19.47 79.6 20.54 79.87 20.86 106.45 63.26 108.29 62.19"></polygon>
                    <polygon id="Path" fill="#007180" points="79.6 20.54 79.87 20.86 106.45 63.26 103.3 61.25 79.51 22.17 3.15 3.23 0.57 1.21 79.33 20.5"></polygon>
                </g>
                <polygon id="Path" fill="url(#linearGradient-33)" fill-rule="nonzero" points="536.41 274.05 525.97 268.02 526.29 260.81 536.35 262.03 570.61 247.1 570.61 254.24"></polygon>
                <polygon id="Path" fill="url(#linearGradient-34)" fill-rule="nonzero" points="536.41 266.84 525.97 260.81 560.19 241.19 570.63 247.22"></polygon>
                <polygon id="Path" fill="url(#linearGradient-35)" fill-rule="nonzero" points="536.41 265.37 525.97 259.34 526.29 252.13 536.35 253.35 570.51 238.75 570.51 245.89"></polygon>
                <polygon id="Path" fill="url(#linearGradient-36)" fill-rule="nonzero" points="536.41 258.16 525.97 252.13 560.07 232.82 570.51 238.85"></polygon>
                <polygon id="Path" fill="url(#linearGradient-37)" fill-rule="nonzero" points="258.51 326.35 237.32 314.11 237.25 338.46 258.44 350.7 279.49 338.46 279.56 314.11"></polygon>
                <polygon id="Path" fill="url(#linearGradient-38)" fill-rule="nonzero" points="311.86 295.21 258.51 326.35 237.32 314.11 290.67 282.98"></polygon>
                <polygon id="Path" fill="#007180" fill-rule="nonzero" points="311.3 295.49 311.23 319.84 258.44 350.7 258.51 326.35"></polygon>
                <polygon id="Path" fill="url(#linearGradient-39)" fill-rule="nonzero" points="284.59 340.75 263.4 328.52 263.33 352.87 284.52 365.1 305.58 352.87 305.65 328.52"></polygon>
                <polygon id="Path" fill="url(#linearGradient-40)" fill-rule="nonzero" points="337.94 309.61 284.59 340.75 263.4 328.52 316.75 297.38"></polygon>
                <polygon id="Path" fill="#007180" fill-rule="nonzero" points="337.39 309.89 337.32 334.24 284.52 365.1 284.59 340.75"></polygon>
                <polygon id="Path" fill="url(#linearGradient-37)" fill-rule="nonzero" points="278.59 305.09 257.4 292.85 257.33 317.2 278.52 329.44 299.57 317.2 299.64 292.85"></polygon>
                <polygon id="Path" fill="url(#linearGradient-38)" fill-rule="nonzero" points="331.94 273.95 278.59 305.09 257.4 292.85 310.75 261.72"></polygon>
                <polygon id="Path" fill="#007180" fill-rule="nonzero" points="331.38 274.23 331.31 298.58 278.52 329.44 278.59 305.09"></polygon>
                <polygon id="Path" fill="url(#linearGradient-41)" fill-rule="nonzero" points="401.13 358.58 377.14 344.73 377.06 372.29 401.05 386.14 424.88 372.29 424.95 344.73"></polygon>
                <polygon id="Path" fill="url(#linearGradient-20)" fill-rule="nonzero" points="461.51 323.33 401.13 358.58 377.14 344.73 437.53 309.49"></polygon>
                <polygon id="Path" fill="#007180" fill-rule="nonzero" points="460.88 323.65 460.81 351.21 401.05 386.14 401.13 358.58"></polygon>
                <polygon id="Path" fill="url(#linearGradient-8)" fill-rule="nonzero" points="326.79 399.12 302.81 385.27 302.73 412.84 326.72 426.68 350.55 412.83 350.62 385.27"></polygon>
                <polygon id="Path" fill="url(#linearGradient-42)" fill-rule="nonzero" points="387.18 363.88 326.79 399.12 302.81 385.27 363.19 350.03"></polygon>
                <polygon id="Path" fill="#007180" fill-rule="nonzero" points="386.55 364.19 386.48 391.75 326.72 426.68 326.79 399.12"></polygon>
                <polygon id="Path" fill="url(#linearGradient-8)" fill-rule="nonzero" points="438.29 386.45 414.31 372.6 414.23 400.17 438.21 414.01 462.04 400.17 462.12 372.6"></polygon>
                <polygon id="Path" fill="url(#linearGradient-42)" fill-rule="nonzero" points="498.68 351.21 438.29 386.45 414.31 372.6 474.69 337.36"></polygon>
                <polygon id="Path" fill="#007180" fill-rule="nonzero" points="498.05 351.52 497.97 379.08 438.21 414.01 438.29 386.45"></polygon>
                <polygon id="Path" fill="url(#linearGradient-43)" fill-rule="nonzero" points="363.96 427 339.98 413.15 339.9 440.71 363.88 454.56 387.71 440.71 387.79 413.15"></polygon>
                <polygon id="Path" fill="url(#linearGradient-44)" fill-rule="nonzero" points="424.35 391.75 363.96 427 339.98 413.15 400.36 377.91"></polygon>
                <polygon id="Path" fill="#007180" fill-rule="nonzero" points="423.72 392.07 423.64 419.63 363.88 454.56 363.96 427"></polygon>
                <polygon id="Path" fill="url(#linearGradient-8)" fill-rule="nonzero" points="546.6 66.36 522.62 52.51 522.54 80.07 546.52 93.92 570.36 80.07 570.43 52.51"></polygon>
                <polygon id="Path" fill="url(#linearGradient-42)" fill-rule="nonzero" points="606.99 31.12 546.6 66.36 522.62 52.51 583 17.27"></polygon>
                <polygon id="Path" fill="#007180" fill-rule="nonzero" points="606.36 31.43 606.28 58.99 546.52 93.92 546.6 66.36"></polygon>
                <polygon id="Path" fill="url(#linearGradient-45)" fill-rule="nonzero" points="472.27 106.91 448.29 93.06 448.21 120.62 472.19 134.47 496.02 120.62 496.1 93.06"></polygon>
                <polygon id="Path" fill="url(#linearGradient-46)" fill-rule="nonzero" points="532.66 71.66 472.27 106.91 448.29 93.06 508.67 57.81"></polygon>
                <polygon id="Path" fill="#007180" fill-rule="nonzero" points="532.03 71.98 531.95 99.54 472.19 134.47 472.27 106.91"></polygon>
                <polygon id="Path" fill="url(#linearGradient-8)" fill-rule="nonzero" points="595.6 91.7 571.61 77.85 571.53 105.42 595.52 119.26 619.35 105.41 619.42 77.85"></polygon>
                <polygon id="Path" fill="url(#linearGradient-47)" fill-rule="nonzero" points="655.98 56.46 595.6 91.7 571.61 77.85 632 42.61"></polygon>
                <polygon id="Path" fill="#007180" fill-rule="nonzero" points="655.35 56.77 655.28 84.33 595.52 119.26 595.6 91.7"></polygon>
                <polygon id="Path" fill="url(#linearGradient-43)" fill-rule="nonzero" points="521.26 132.25 497.28 118.4 497.2 145.96 521.18 159.81 545.01 145.96 545.09 118.4"></polygon>
                <polygon id="Path" fill="url(#linearGradient-44)" fill-rule="nonzero" points="581.65 97 521.26 132.25 497.28 118.4 557.66 83.16"></polygon>
                <polygon id="Path" fill="#007180" fill-rule="nonzero" points="581.02 97.32 580.94 124.88 521.18 159.81 521.26 132.25"></polygon>
                <polygon id="Path" fill="url(#linearGradient-48)" fill-rule="nonzero" points="646.84 119.86 622.85 106.01 622.78 133.57 646.76 147.42 670.59 133.57 670.67 106.01"></polygon>
                <polygon id="Path" fill="url(#linearGradient-49)" fill-rule="nonzero" points="707.22 84.61 646.84 119.86 622.85 106.01 683.24 70.77"></polygon>
                <polygon id="Path" fill="url(#linearGradient-19)" fill-rule="nonzero" points="572.51 160.4 548.52 146.55 548.44 174.12 572.43 187.96 596.26 174.12 596.34 146.55"></polygon>
                <polygon id="Path" fill="url(#linearGradient-47)" fill-rule="nonzero" points="632.89 125.16 572.51 160.4 548.52 146.55 608.91 111.31"></polygon>
                <polygon id="Path" fill="#007180" fill-rule="nonzero" points="632.27 125.47 632.19 153.03 572.43 187.96 572.51 160.4"></polygon>
                <polygon id="Path" fill="url(#linearGradient-8)" fill-rule="nonzero" points="613.05 192.5 589.07 178.65 588.99 206.21 612.97 220.06 636.8 206.21 636.88 178.65"></polygon>
                <polygon id="Path" fill="url(#linearGradient-9)" fill-rule="nonzero" points="673.44 157.26 613.05 192.5 589.07 178.65 649.45 143.41"></polygon>
                <polygon id="Path" fill="#007180" fill-rule="nonzero" points="672.81 157.57 672.73 185.13 612.97 220.06 613.05 192.5"></polygon>
                <path d="M254.22,179.92 C254.22,248.441969 198.671969,303.99 130.15,303.99 C61.6280311,303.99 6.08,248.441969 6.08,179.92 C6.08,111.398031 61.6280311,55.85 130.15,55.85 C163.07006,55.8021355 194.655568,68.8583876 217.93359,92.1364099 C241.211612,115.414432 254.267864,146.99994 254.22,179.92 Z" id="Path" fill="#00C4DE" fill-rule="nonzero"></path>
                <path d="M157.15,93 C155.9,98.37 152.63,103.48 147.68,105.92 L140.68,95.46 C138.176485,91.9880398 136.047934,88.2605613 134.33,84.34 C133.457163,82.3571299 133.033715,80.2057449 133.09,78.04 C133.56,70.88 143.3,57.77 151.32,63.8 C158.38,69.12 158.92,85.4 157.15,93 Z" id="Path" fill="#04393A" fill-rule="nonzero"></path>
                <path d="M60.57,107.94 C55.39,111.54 54.07,118.65 54.38,124.94 C54.69,131.23 56.17,137.62 54.81,143.78 C53.14,151.37 47.45,157.35 41.81,162.67 C36.81,167.34 31.57,171.98 28.53,178.09 C26.8816489,181.675373 25.6954858,185.455639 25,189.34 C21.5295917,205.789609 20.0522947,222.59722 20.6,239.4 C26.35,253.3 50.72,289.59 67.46,280.89 C71.21,278.89 74.82,204.28 78.17,201.68 C81.17,199.36 83.8,196.61 86.58,194.03 C96.78,184.56 109.78,176.03 112.58,162.37 C115.74,147.14 106.24,133.52 95.78,123.78 C90.61,118.96 87.64,111.78 82.61,107.27 C77.35,102.55 66.07,104.13 60.57,107.94 Z" id="Path" fill="#05B6C4" fill-rule="nonzero"></path>
                <path d="M245,185.82 C245.76,181.96 245.75,177.82 247.89,174.47 C248.951818,172.968789 250.217275,171.622558 251.65,170.47 L262.24,161.19 C262.62,160.86 263.15,160.5 263.59,160.76 C263.818356,160.929045 263.972446,161.179891 264.02,161.46 C264.54,163.41 263.82,165.46 262.86,167.25 C261.766226,168.945569 260.848147,170.74822 260.12,172.63 C266.04,166.63 274.37,162.73 278.26,155.25 C279.26,153.25 280.12,150.88 282.08,149.75 C283.32,150.92 283.35,152.89 282.92,154.54 C282.49,156.19 281.68,157.75 281.55,159.45 C282.796667,156.783333 284.13,154.116667 285.55,151.45 C286.03,150.55 286.87,149.51 287.82,149.85 C288.77,150.19 288.82,151.23 288.77,152.1 C288.645589,156.796898 287.581307,161.421255 285.64,165.7 L290.15,159.17 C290.37,158.85 290.65,158.5 291.03,158.51 C291.334154,158.556992 291.599728,158.741419 291.75,159.01 C292.227653,159.966657 292.348217,161.062374 292.09,162.1 C291.015787,169.299369 287.595569,175.942958 282.36,181 C284.349671,179.292763 286.507381,177.791748 288.8,176.52 C288.94262,177.889519 288.536242,179.259697 287.67,180.33 C283.67,186.33 277,189.71 271.1,193.78 C265.048306,197.953909 259.655257,203.009892 255.1,208.78 C253.71,210.54 251.79,212.59 249.63,211.97 C248.26,211.57 247.44,210.23 246.52,209.14 C244.01,206.21 238.18,203.4 239.35,198.68 C239.85,196.68 241.52,194.85 242.47,193.01 C243.646744,190.744013 244.498444,188.32357 245,185.82 Z" id="Path" fill="url(#linearGradient-50)" fill-rule="nonzero"></path>
                <path d="M206.56,277.68 C184.759944,294.769588 157.850089,304.03889 130.15,304 C107.06,304 83.01,297.61 63.68,284.72 C55.44,279.22 56.22,261.92 55.56,252.82 C54.93,244.21 55.38,240.82 55.91,232.2 C58.16,195.32 66.09,186.14 70.1,181.9 C77.6963364,173.840614 87.2704811,167.910643 97.87,164.7 C111.53,160.44 132.87,156.4 146.68,160.02 C165.42,164.91 179.93,180.44 188.29,197.91 C196.65,215.38 199.78,234.82 202.81,253.91 C204.056667,261.85 205.306667,269.773333 206.56,277.68 Z" id="Path" fill="#FFFFFF" fill-rule="nonzero"></path>
                <path d="M129,189.59 C133.38,196.06 143.64,197.47 149.61,192.42 C152.02,190.42 153.7,187.57 156.2,185.65 C160.85,182.07 167.29,182.27 173.14,182.65 C173.14,176.55 167.73,171.95 162.53,168.77 C158.495314,166.30365 154.295351,164.118467 149.96,162.23 C147.249881,160.883666 144.299608,160.088316 141.28,159.89 C136.18,159.82 131.57,162.74 127.28,165.56 C123.6,168 119.79,170.56 117.54,174.37 C115.29,178.18 115.11,183.58 118.33,186.6" id="Path" fill="url(#linearGradient-51)" fill-rule="nonzero"></path>
                <path d="M225.12,269.92 C184.367519,313.113345 119.548323,323.250572 67.5540766,294.562106 C15.55983,265.87364 -10.4274211,205.632837 4.38289484,148.125583 C19.1932108,90.6183282 71.0462501,50.4243752 130.43,50.42" id="Path" stroke="#F2FAFB" stroke-width="2.52"></path>
                <path d="M394.56,110.29 L546.67,22.99" id="Path" stroke="#F2FAFB"></path>
                <path d="M448.29,93.06 L508.67,57.82" id="Path" stroke="#F2FAFB"></path>
                <path d="M522.62,52.51 L583,17.27" id="Path" stroke="#F2FAFB"></path>
                <polyline id="Path" stroke="#F2FAFB" points="454.6 97.03 472.27 106.91 472.06 131.1"></polyline>
                <path d="M159.59,95.18 C159.42,114.25 156.93,139.62 145.52,145.06 C143.945595,145.80703 142.434025,146.679861 141,147.67 C127.14,157.28 129.19,173.27 129.19,173.27 C129.367393,174.760402 129.220714,176.271536 128.76,177.7 C128.060757,179.957923 125.860016,181.404124 123.51,181.15 C120.86,181.1 117,179.82 111.4,176.33 C110.4,175.71 109.31,175 108.19,174.23 C84.76,158.12 81.56,87.51 81.81,84.9 C82,83 97.21,54.35 124.71,56.44 C144.66,58 159.79,75.17 159.59,95.18 Z" id="Path" fill="url(#linearGradient-52)" fill-rule="nonzero"></path>
                <path d="M157.81,64.53 C157.07,68.01 153.24,70.53 150.92,73.21 C148.16,76.36 144.92,76.12 141.15,77.21 C135.97,78.68 132.3,83.58 127.15,85.03 C124.5722,85.6274244 121.897463,85.6751268 119.3,85.17 C117.63,84.92 115.95,84.6 114.3,84.38 C110.01,83.79 105.03,84.13 102.3,87.48 C99.57,90.83 100.17,95.48 101.05,99.56 C101.93,103.64 102.99,108.14 101.05,111.88 C98.263759,106.728396 92.7466934,103.655995 86.9,104 C85.3489099,109.120379 86.2852256,114.671657 89.43,119 C90.73,120.75 92.43,122.28 93.35,124.24 C95.78,129.24 93.03,135.07 90.35,139.92 C90.0564051,140.603251 89.5914032,141.199143 89,141.65 C87.19,142.74 85.1,140.71 84,138.89 C78.7907084,130.058549 75.7380515,120.122853 75.09,109.89 C74.84,106.08 74.91,102.12 73.38,98.62 C72.416084,96.7381139 71.3200048,94.9269098 70.1,93.2 C65.49,85.82 64.31,75.71 69.28,68.56 C72.39,64.09 77.38,61.35 82.28,59 C94.98,53 117.9,49.75 127.53,39.51 C140.15,26.1 164.85,31.65 157.81,64.53 Z" id="Path" fill="#045056" fill-rule="nonzero"></path>
                <path d="M141,147.67 C131.79,155.74 130.81,160.87 130.81,160.87 C130.81,160.87 129.53,175.58 128.81,177.69 L128.7,177.79 C129.52,178.79 128.88,185.29 128.88,185.29 C126.23,185.24 117.05,179.81 111.44,176.29 C111.015933,175.614628 110.648031,174.905579 110.34,174.17 C110.34,174.17 106.44,146.73 116.17,149.17 C124.41578,151.102872 133.04687,150.581461 141,147.67 Z" id="Path" fill="url(#linearGradient-53)" fill-rule="nonzero"></path>
                <path d="M95.53,118.47 C95.1047349,117.326673 95.1478586,116.061711 95.65,114.95 C95.9717881,114.330496 96.1527657,113.647561 96.18,112.95 C96.0605914,112.251064 95.7081357,111.61312 95.18,111.14 C93.9987296,109.879346 92.4994652,108.960442 90.84,108.48 C90.3293177,108.262715 89.7453942,108.303627 89.27,108.59 C89.0463044,108.80392 88.8899097,109.07848 88.82,109.38 C88.5195163,110.543271 88.4751615,111.757911 88.69,112.94 C89.0333546,115.207184 89.8181764,117.384979 91,119.35 C91.84,120.77 93.05,122.17 94.69,122.35 C95.59,122.46 97.64,121.86 97.81,120.74 C97.98,119.62 96,119.58 95.53,118.47 Z" id="Path" fill="url(#linearGradient-54)" fill-rule="nonzero"></path>
                <path d="M97.3,243.73 C97.3,243.73 101.8,297.79 97.86,298.92 C97.86,298.92 128.08,314.7 151.55,311.31 C175.02,307.92 129.4,287.65 121,267.38 C112.6,247.11 111.38,232.47 97.3,243.73 Z" id="Path" fill="url(#linearGradient-55)" fill-rule="nonzero"></path>
                <path d="M177.27,228.9 C177.27,228.9 189.56,241.9 209.84,218.2 C230.12,194.5 238.93,190 238.93,190 L259,217.45 C259,217.45 204,303.45 168.53,288.22 C113.65,264.64 177.27,228.9 177.27,228.9 Z" id="Path" fill="#FFFFFF" fill-rule="nonzero"></path>
                <polygon id="Path" fill="url(#linearGradient-56)" fill-rule="nonzero" points="241.95 194.03 243.85 189.81 257.98 205.62 253.99 210.57"></polygon>
                <path d="M181.21,210.5 C181.21,210.5 182.05,250.76 186.56,290.5 C186.56,290.5 215,274.73 239.77,243.2 C239.77,243.2 219.22,244.89 212.46,249.11 C205.7,253.33 200.92,253.33 200.92,253.33 C200.92,253.33 193.6,213.32 181.21,210.5 Z" id="Path" fill="url(#linearGradient-57)" fill-rule="nonzero"></path>
                <path d="M93.64,155 C93.64,155 113.91,177 119.83,175 L114.2,195.3 L90,167.43 C90,167.43 88.86,162.08 93.64,155 Z" id="Path" fill="#CDF6F7" fill-rule="nonzero"></path>
                <polygon id="Path" fill="#CDF6F7" fill-rule="nonzero" points="130.81 160.88 147.42 181.22 128.91 174.11"></polygon>
                <polygon id="Path" fill="#8BC6C6" fill-rule="nonzero" points="119.83 175.03 128.84 185.59 117.76 182.63"></polygon>
                <polygon id="Path" fill="#8BC6C6" fill-rule="nonzero" points="128.91 174.11 128.84 185.59 133.34 175.8"></polygon>
                <path d="M481.35,38.75 C481.35,38.75 364.22,42.13 346.2,82.68 C328.18,123.23 349.58,184 311.29,208.81" id="Path" stroke="url(#linearGradient-58)"></path>
                <path d="M182.05,383.1 C182.05,383.1 230.76,382.26 242.3,377.75 C253.84,373.24 267.3,367.55 267.3,367.55" id="Path" stroke="url(#linearGradient-59)"></path>
                <path d="M278.59,305.09 L331.38,274.23" id="Path" stroke="url(#linearGradient-60)"></path>
                <path d="M278.52,329.44 L278.59,305.09" id="Path" stroke="url(#linearGradient-61)"></path>
                <circle id="Oval" fill="url(#linearGradient-62)" fill-rule="nonzero" cx="278.91" cy="99.29" r="22.81"></circle>
            </g>
        </g>
    </g>
</svg>